<?xml version="1.0" encoding="UTF-8"?>
<!DOCTYPE svg PUBLIC "-//W3C//DTD SVG 1.1//EN" "http://www.w3.org/Graphics/SVG/1.1/DTD/svg11.dtd">
<svg xmlns="http://www.w3.org/2000/svg" version="1.1" width="1222px" height="1261px" style="shape-rendering:geometricPrecision; text-rendering:geometricPrecision; image-rendering:optimizeQuality; fill-rule:evenodd; clip-rule:evenodd" xmlns:xlink="http://www.w3.org/1999/xlink">
<g><path style="opacity:0.986" fill="#cf993b" d="M 587.5,-0.5 C 606.167,-0.5 624.833,-0.5 643.5,-0.5C 826.623,11.9573 973.123,90.9573 1083,236.5C 1176.76,371.978 1206.76,520.644 1173,682.5C 1151.85,770.627 1112.35,849.127 1054.5,918C 1092.64,901.226 1121.64,874.393 1141.5,837.5C 1168.19,871.186 1194.86,904.852 1221.5,938.5C 1221.5,939.5 1221.5,940.5 1221.5,941.5C 1204.77,963.737 1184.43,981.904 1160.5,996C 1145.83,1003 1131.17,1010 1116.5,1017C 1126.5,1025 1136.5,1033 1146.5,1041C 1147.9,1042.06 1148.9,1043.39 1149.5,1045C 1092.08,1105.39 1025.42,1153.06 949.5,1188C 854.3,1230.88 754.633,1255.05 650.5,1260.5C 622.5,1260.5 594.5,1260.5 566.5,1260.5C 478.705,1256.17 394.038,1237.34 312.5,1204C 242.922,1175.06 182.755,1132.89 132,1077.5C 123.618,1067.45 115.618,1057.12 108,1046.5C 109.046,1041.95 111.546,1038.12 115.5,1035C 90.1391,1028.49 67.8057,1016.49 48.5,999C 29.2325,979.587 12.8992,958.087 -0.5,934.5C -0.5,933.5 -0.5,932.5 -0.5,931.5C 36.6085,910.443 73.6085,889.11 110.5,867.5C 115.404,875.634 120.571,883.634 126,891.5C 140.469,908.928 158.636,918.928 180.5,921.5C 77.4548,799.84 33.2881,659.173 48,499.5C 68.8841,338.795 143.384,209.628 271.5,112C 365.683,43.7676 471.016,6.26764 587.5,-0.5 Z M 203.5,948.5 C 218.646,962.141 233.979,975.641 249.5,989C 383.572,1094.53 535.572,1135.53 705.5,1112C 828.419,1092.29 933.919,1039.13 1022,952.5C 1025.8,955.297 1029.3,958.464 1032.5,962C 966.725,1017.25 894.059,1061.92 814.5,1096C 668.932,1153.96 525.266,1149.63 383.5,1083C 314.845,1049.87 252.678,1008.04 197,957.5C 199.41,954.603 201.577,951.603 203.5,948.5 Z"/></g>
<g><path style="opacity:1" fill="#f8fafb" d="M 590.5,21.5 C 739.216,17.4528 869.883,63.2862 982.5,159C 1120.49,285.588 1179.66,442.422 1160,629.5C 1136.89,778.786 1065.39,898.619 945.5,989C 809.783,1084.81 660.116,1116.48 496.5,1084C 334.115,1045.54 211.948,954.043 130,809.5C 58.1638,669.959 47.8305,525.959 99,377.5C 158.682,225.151 264.515,118.651 416.5,58C 472.812,37.1204 530.812,24.9537 590.5,21.5 Z"/></g>
<g><path style="opacity:1" fill="#cf993c" d="M 586.5,138.5 C 736.76,133.227 857.26,189.893 948,308.5C 1027.88,423.812 1048.55,549.145 1010,684.5C 975.958,791.487 910.458,872.987 813.5,929C 714.162,982.111 610.162,993.778 501.5,964C 378.907,924.944 291.073,846.777 238,729.5C 185.842,602.328 191.176,477.662 254,355.5C 310.705,254.476 394.539,186.976 505.5,153C 532.169,145.557 559.169,140.723 586.5,138.5 Z"/></g>
<g><path style="opacity:1" fill="#f8fafb" d="M 725.5,176.5 C 725.5,213.833 725.5,251.167 725.5,288.5C 708.411,295.056 691.411,301.556 674.5,308C 670.193,302.55 666.527,296.716 663.5,290.5C 668.993,277.501 674.159,264.501 679,251.5C 670.5,261.333 662,271.167 653.5,281C 650.5,281.667 647.5,281.667 644.5,281C 637.914,279.297 631.247,277.964 624.5,277C 621.146,248.152 617.646,219.319 614,190.5C 612.973,219.166 611.973,247.832 611,276.5C 599.638,280.11 588.138,282.944 576.5,285C 565.97,272.104 555.804,258.937 546,245.5C 551.656,260.502 557.656,275.502 564,290.5C 564.667,291.5 564.667,292.5 564,293.5C 559.547,298.631 554.547,302.964 549,306.5C 537.726,302.962 526.559,299.462 515.5,296C 523.667,302.833 531.833,309.667 540,316.5C 539.632,323.522 538.798,330.522 537.5,337.5C 529.447,337.784 521.447,338.617 513.5,340C 519.727,342.465 526.06,344.631 532.5,346.5C 533.713,346.747 534.38,347.414 534.5,348.5C 526.167,348.5 517.833,348.5 509.5,348.5C 509.832,290.664 509.499,232.998 508.5,175.5C 551.426,162.306 595.426,157.473 640.5,161C 669.563,162.953 697.896,168.119 725.5,176.5 Z"/></g>
<g><path style="opacity:1" fill="#04a859" d="M 508.5,175.5 C 509.499,232.998 509.832,290.664 509.5,348.5C 434.167,348.5 358.833,348.5 283.5,348.5C 336.71,262.639 411.71,204.972 508.5,175.5 Z"/></g>
<g><path style="opacity:1" fill="#02a859" d="M 725.5,176.5 C 821.429,205.788 895.429,263.122 947.5,348.5C 873.833,348.5 800.167,348.5 726.5,348.5C 726.795,346.265 726.461,344.265 725.5,342.5C 725.5,341.833 725.5,341.167 725.5,340.5C 725.5,323.5 725.5,306.5 725.5,289.5C 725.5,289.167 725.5,288.833 725.5,288.5C 725.5,251.167 725.5,213.833 725.5,176.5 Z"/></g>
<g><path style="opacity:1" fill="#c29240" d="M 725.5,288.5 C 725.5,288.833 725.5,289.167 725.5,289.5C 711.691,301.475 698.691,314.308 686.5,328C 688.817,332.323 691.15,336.657 693.5,341C 704.147,340.762 714.814,340.596 725.5,340.5C 725.5,341.167 725.5,341.833 725.5,342.5C 719.428,344.023 713.428,345.857 707.5,348C 699.173,348.5 690.84,348.666 682.5,348.5C 677.818,324.987 664.484,308.487 642.5,299C 605.081,286.251 575.247,296.085 553,328.5C 549.599,334.775 547.432,341.442 546.5,348.5C 542.5,348.5 538.5,348.5 534.5,348.5C 534.38,347.414 533.713,346.747 532.5,346.5C 526.06,344.631 519.727,342.465 513.5,340C 521.447,338.617 529.447,337.784 537.5,337.5C 538.798,330.522 539.632,323.522 540,316.5C 531.833,309.667 523.667,302.833 515.5,296C 526.559,299.462 537.726,302.962 549,306.5C 554.547,302.964 559.547,298.631 564,293.5C 564.667,292.5 564.667,291.5 564,290.5C 557.656,275.502 551.656,260.502 546,245.5C 555.804,258.937 565.97,272.104 576.5,285C 588.138,282.944 599.638,280.11 611,276.5C 611.973,247.832 612.973,219.166 614,190.5C 617.646,219.319 621.146,248.152 624.5,277C 631.247,277.964 637.914,279.297 644.5,281C 647.5,281.667 650.5,281.667 653.5,281C 662,271.167 670.5,261.333 679,251.5C 674.159,264.501 668.993,277.501 663.5,290.5C 666.527,296.716 670.193,302.55 674.5,308C 691.411,301.556 708.411,295.056 725.5,288.5 Z"/></g>
<g><path style="opacity:1" fill="#f8fafa" d="M 725.5,289.5 C 725.5,306.5 725.5,323.5 725.5,340.5C 714.814,340.596 704.147,340.762 693.5,341C 691.15,336.657 688.817,332.323 686.5,328C 698.691,314.308 711.691,301.475 725.5,289.5 Z"/></g>
<g><path style="opacity:1" fill="#f8fafb" d="M 682.5,348.5 C 637.167,348.5 591.833,348.5 546.5,348.5C 547.432,341.442 549.599,334.775 553,328.5C 575.247,296.085 605.081,286.251 642.5,299C 664.484,308.487 677.818,324.987 682.5,348.5 Z"/></g>
<g><path style="opacity:1" fill="#cbd4db" d="M 725.5,342.5 C 725.5,344.833 725.5,347.167 725.5,349.5C 578.167,349.5 430.833,349.5 283.5,349.5C 283.5,349.167 283.5,348.833 283.5,348.5C 358.833,348.5 434.167,348.5 509.5,348.5C 517.833,348.5 526.167,348.5 534.5,348.5C 538.5,348.5 542.5,348.5 546.5,348.5C 591.833,348.5 637.167,348.5 682.5,348.5C 690.84,348.666 699.173,348.5 707.5,348C 713.428,345.857 719.428,344.023 725.5,342.5 Z"/></g>
<g><path style="opacity:1" fill="#23ad74" d="M 725.5,342.5 C 726.461,344.265 726.795,346.265 726.5,348.5C 800.167,348.5 873.833,348.5 947.5,348.5C 948.167,348.5 948.5,348.833 948.5,349.5C 874.167,349.5 799.833,349.5 725.5,349.5C 725.5,347.167 725.5,344.833 725.5,342.5 Z"/></g>
<g><path style="opacity:1" fill="#067db8" d="M 283.5,349.5 C 430.833,349.5 578.167,349.5 725.5,349.5C 799.833,349.5 874.167,349.5 948.5,349.5C 992.795,422.94 1011.79,502.606 1005.5,588.5C 745.833,588.5 486.167,588.5 226.5,588.5C 219.545,502.653 238.545,422.987 283.5,349.5 Z"/></g>
<g><path style="opacity:1" fill="#2a65a5" d="M 486.5,382.5 C 533.345,381.529 578.011,390.862 620.5,410.5C 659.062,388.954 700.396,380.788 744.5,386C 783.814,390.578 822.147,399.412 859.5,412.5C 870.446,468.563 881.779,524.563 893.5,580.5C 871.718,582.421 850.052,581.587 828.5,578C 815.652,575.22 802.819,572.387 790,569.5C 757.407,575.762 724.574,580.262 691.5,583C 664.931,584.146 638.431,583.313 612,580.5C 574.014,582.709 536.181,581.209 498.5,576C 472.842,572.001 447.342,567.168 422,561.5C 389.053,567.847 355.886,572.514 322.5,575.5C 341.088,519.404 360.088,463.404 379.5,407.5C 414.074,393.938 449.741,385.604 486.5,382.5 Z"/></g>
<g><path style="opacity:1" fill="#f7f9fb" d="M 479.5,386.5 C 528.854,384.258 575.854,393.591 620.5,414.5C 660.311,392.029 702.978,383.862 748.5,390C 784.742,394.561 820.075,402.894 854.5,415C 856.823,421.233 858.656,427.733 860,434.5C 869.564,480.821 879.064,527.154 888.5,573.5C 888.167,574.5 887.833,575.5 887.5,576.5C 869.121,578.115 850.788,577.615 832.5,575C 804.116,568.647 775.782,561.98 747.5,555C 722.719,549.653 697.719,547.986 672.5,550C 652.007,553.248 633.007,560.415 615.5,571.5C 587.327,553.038 556.327,544.705 522.5,546.5C 494.367,547.347 466.367,549.847 438.5,554C 401.853,562.096 364.853,567.93 327.5,571.5C 345.224,517.662 363.557,463.995 382.5,410.5C 397.642,403.842 413.309,398.675 429.5,395C 446.135,391.177 462.802,388.343 479.5,386.5 Z"/></g>
<g><path style="opacity:1" fill="#1f5ea1" d="M 710.5,394.5 C 711.5,394.5 712.5,394.5 713.5,394.5C 713.5,395.5 713.5,396.5 713.5,397.5C 712.5,397.5 711.5,397.5 710.5,397.5C 710.5,396.5 710.5,395.5 710.5,394.5 Z"/></g>
<g><path style="opacity:1" fill="#3d6fab" d="M 724.5,394.5 C 730.5,394.5 736.5,394.5 742.5,394.5C 742.5,395.833 742.5,397.167 742.5,398.5C 736.5,398.5 730.5,398.5 724.5,398.5C 724.5,397.167 724.5,395.833 724.5,394.5 Z"/></g>
<g><path style="opacity:1" fill="#356ba8" d="M 688.5,395.5 C 692.167,395.5 695.833,395.5 699.5,395.5C 699.5,396.5 699.5,397.5 699.5,398.5C 693.516,399.297 687.516,399.963 681.5,400.5C 681.5,399.167 681.5,397.833 681.5,396.5C 684.059,396.802 686.393,396.468 688.5,395.5 Z"/></g>
<g><path style="opacity:1" fill="#3269a7" d="M 487.5,395.5 C 491.5,395.5 495.5,395.5 499.5,395.5C 499.5,396.833 499.5,398.167 499.5,399.5C 493.5,399.5 487.5,399.5 481.5,399.5C 481.5,398.5 481.5,397.5 481.5,396.5C 483.735,396.795 485.735,396.461 487.5,395.5 Z"/></g>
<g><path style="opacity:1" fill="#2160a2" d="M 510.5,395.5 C 511.5,395.5 512.5,395.5 513.5,395.5C 513.5,396.5 513.5,397.5 513.5,398.5C 512.5,398.5 511.5,398.5 510.5,398.5C 510.5,397.5 510.5,396.5 510.5,395.5 Z"/></g>
<g><path style="opacity:1" fill="#336aa7" d="M 524.5,396.5 C 530.552,396.731 536.552,397.398 542.5,398.5C 542.5,399.5 542.5,400.5 542.5,401.5C 536.5,401.167 530.5,400.833 524.5,400.5C 524.5,399.167 524.5,397.833 524.5,396.5 Z"/></g>
<g><path style="opacity:1" fill="#4676ae" d="M 753.5,396.5 C 756.5,396.167 757.833,397.5 757.5,400.5C 756.167,400.5 754.833,400.5 753.5,400.5C 753.5,399.167 753.5,397.833 753.5,396.5 Z"/></g>
<g><path style="opacity:1" fill="#4675ae" d="M 466.5,398.5 C 467.833,398.5 469.167,398.5 470.5,398.5C 470.833,401.5 469.5,402.833 466.5,402.5C 466.5,401.167 466.5,399.833 466.5,398.5 Z"/></g>
<g><path style="opacity:1" fill="#346aa8" d="M 767.5,399.5 C 772.941,400.13 778.274,401.296 783.5,403C 784.973,403.71 785.64,404.876 785.5,406.5C 779.49,405.495 773.49,404.495 767.5,403.5C 767.5,402.167 767.5,400.833 767.5,399.5 Z"/></g>
<g><path style="opacity:1" fill="#3f70ab" d="M 666.5,399.5 C 667.833,399.5 669.167,399.5 670.5,399.5C 668.838,404.536 667.505,404.536 666.5,399.5 Z"/></g>
<g><path style="opacity:1" fill="#3a6daa" d="M 452.5,400.5 C 453.833,400.5 455.167,400.5 456.5,400.5C 456.5,401.833 456.5,403.167 456.5,404.5C 450.738,405.357 445.072,406.69 439.5,408.5C 438.167,407.167 438.167,405.833 439.5,404.5C 444.081,403.611 448.414,402.277 452.5,400.5 Z"/></g>
<g><path style="opacity:1" fill="#2663a3" d="M 553.5,400.5 C 555.532,401.048 556.532,402.381 556.5,404.5C 555.5,404.5 554.5,404.5 553.5,404.5C 553.5,403.167 553.5,401.833 553.5,400.5 Z"/></g>
<g><path style="opacity:1" fill="#346aa8" d="M 654.5,402.5 C 656.176,403.183 656.843,404.517 656.5,406.5C 650.829,407.626 645.329,409.292 640,411.5C 638.457,409.911 638.457,408.577 640,407.5C 644.98,405.897 649.813,404.23 654.5,402.5 Z"/></g>
<g><path style="opacity:1" fill="#2f67a6" d="M 567.5,404.5 C 572.96,405.486 578.293,406.986 583.5,409C 584.337,410.011 584.67,411.178 584.5,412.5C 579.097,411.315 573.763,409.815 568.5,408C 567.663,406.989 567.33,405.822 567.5,404.5 Z"/></g>
<g><path style="opacity:1" fill="#386daa" d="M 796.5,406.5 C 798.532,407.048 799.532,408.381 799.5,410.5C 798.167,410.5 796.833,410.5 795.5,410.5C 795.433,409.041 795.766,407.708 796.5,406.5 Z"/></g>
<g><path style="opacity:1" fill="#3f71ac" d="M 424.5,408.5 C 426.346,408.222 427.68,408.889 428.5,410.5C 427.68,412.111 426.346,412.778 424.5,412.5C 424.5,411.167 424.5,409.833 424.5,408.5 Z"/></g>
<g><path style="opacity:1" fill="#2e67a6" d="M 809.5,411.5 C 815.031,412.931 820.365,414.931 825.5,417.5C 826.386,418.325 826.719,419.325 826.5,420.5C 820.958,419.374 815.624,417.541 810.5,415C 809.663,413.989 809.33,412.822 809.5,411.5 Z"/></g>
<g><path style="opacity:1" fill="#3269a7" d="M 412.5,412.5 C 414.104,413.287 414.771,414.62 414.5,416.5C 408.979,417.924 403.646,419.924 398.5,422.5C 397.167,421.167 397.167,419.833 398.5,418.5C 403.256,416.449 407.923,414.449 412.5,412.5 Z"/></g>
<g><path style="opacity:1" fill="#1f5ea1" d="M 717.5,415.5 C 718.5,415.5 719.5,415.5 720.5,415.5C 720.5,416.5 720.5,417.5 720.5,418.5C 719.5,418.5 718.5,418.5 717.5,418.5C 717.5,417.5 717.5,416.5 717.5,415.5 Z"/></g>
<g><path style="opacity:1" fill="#356aa8" d="M 731.5,415.5 C 737.81,416.19 744.143,416.524 750.5,416.5C 750.5,417.833 750.5,419.167 750.5,420.5C 744.196,419.74 737.863,419.407 731.5,419.5C 731.5,418.167 731.5,416.833 731.5,415.5 Z"/></g>
<g><path style="opacity:1" fill="#4071ac" d="M 502.5,416.5 C 503.833,416.5 505.167,416.5 506.5,416.5C 506.5,417.833 506.5,419.167 506.5,420.5C 505.167,420.5 503.833,420.5 502.5,420.5C 502.5,419.167 502.5,417.833 502.5,416.5 Z"/></g>
<g><path style="opacity:1" fill="#3369a7" d="M 697.5,415.5 C 700.5,415.5 703.5,415.5 706.5,415.5C 706.5,416.833 706.5,418.167 706.5,419.5C 700.484,419.593 694.484,419.926 688.5,420.5C 688.5,419.5 688.5,418.5 688.5,417.5C 691.727,417.324 694.727,416.657 697.5,415.5 Z"/></g>
<g><path style="opacity:1" fill="#2c65a5" d="M 484.5,417.5 C 486.833,417.5 489.167,417.5 491.5,417.5C 491.5,418.5 491.5,419.5 491.5,420.5C 485.471,420.425 479.471,420.759 473.5,421.5C 473.5,420.167 473.5,418.833 473.5,417.5C 477.167,417.5 480.833,417.5 484.5,417.5 Z"/></g>
<g><path style="opacity:1" fill="#366aa8" d="M 517.5,417.5 C 523.509,417.701 529.509,418.034 535.5,418.5C 535.5,419.833 535.5,421.167 535.5,422.5C 529.479,421.997 523.479,421.331 517.5,420.5C 517.5,419.5 517.5,418.5 517.5,417.5 Z"/></g>
<g><path style="opacity:1" fill="#4976af" d="M 760.5,418.5 C 761.833,418.5 763.167,418.5 764.5,418.5C 764.5,419.833 764.5,421.167 764.5,422.5C 763.167,422.5 761.833,422.5 760.5,422.5C 760.5,421.167 760.5,419.833 760.5,418.5 Z"/></g>
<g><path style="opacity:1" fill="#8faed0" d="M 484.5,417.5 C 486.948,416.527 489.615,416.194 492.5,416.5C 492.768,418.099 492.434,419.432 491.5,420.5C 491.5,419.5 491.5,418.5 491.5,417.5C 489.167,417.5 486.833,417.5 484.5,417.5 Z"/></g>
<g><path style="opacity:1" fill="#4575ae" d="M 673.5,419.5 C 674.833,419.5 676.167,419.5 677.5,419.5C 677.5,420.833 677.5,422.167 677.5,423.5C 674.5,423.833 673.167,422.5 673.5,419.5 Z"/></g>
<g><path style="opacity:1" fill="#3169a7" d="M 459.5,419.5 C 460.5,419.5 461.5,419.5 462.5,419.5C 462.5,420.833 462.5,422.167 462.5,423.5C 461.5,423.5 460.5,423.5 459.5,423.5C 459.5,422.167 459.5,420.833 459.5,419.5 Z"/></g>
<g><path style="opacity:1" fill="#2b66a5" d="M 546.5,420.5 C 548.912,420.694 549.912,422.027 549.5,424.5C 548.5,424.5 547.5,424.5 546.5,424.5C 546.5,423.167 546.5,421.833 546.5,420.5 Z"/></g>
<g><path style="opacity:1" fill="#366ba8" d="M 775.5,421.5 C 781.5,422.5 787.5,423.5 793.5,424.5C 793.853,426.635 793.02,427.968 791,428.5C 785.836,427.084 780.669,425.751 775.5,424.5C 775.5,423.5 775.5,422.5 775.5,421.5 Z"/></g>
<g><path style="opacity:1" fill="#3168a6" d="M 444.5,422.5 C 445.833,422.5 447.167,422.5 448.5,422.5C 448.64,424.124 447.973,425.29 446.5,426C 441.748,426.855 437.081,428.021 432.5,429.5C 431.585,428.672 430.919,427.672 430.5,426.5C 435.196,424.83 439.862,423.497 444.5,422.5 Z"/></g>
<g><path style="opacity:1" fill="#366ba8" d="M 659.5,422.5 C 660.833,422.5 662.167,422.5 663.5,422.5C 663.67,423.822 663.337,424.989 662.5,426C 656.859,427.361 651.192,428.528 645.5,429.5C 645.33,428.178 645.663,427.011 646.5,426C 650.999,424.961 655.332,423.794 659.5,422.5 Z"/></g>
<g><path style="opacity:1" fill="#396da9" d="M 560.5,423.5 C 566.5,424.833 572.5,426.167 578.5,427.5C 578.778,429.346 578.111,430.68 576.5,431.5C 571.211,429.845 565.878,428.511 560.5,427.5C 560.5,426.167 560.5,424.833 560.5,423.5 Z"/></g>
<g><path style="opacity:1" fill="#3e71ab" d="M 803.5,428.5 C 804.833,428.5 806.167,428.5 807.5,428.5C 807.778,430.346 807.111,431.68 805.5,432.5C 803.889,431.68 803.222,430.346 803.5,428.5 Z"/></g>
<g><path style="opacity:1" fill="#396daa" d="M 417.5,429.5 C 418.5,429.5 419.5,429.5 420.5,429.5C 420.5,430.833 420.5,432.167 420.5,433.5C 417.45,433.354 416.45,432.02 417.5,429.5 Z"/></g>
<g><path style="opacity:1" fill="#396eaa" d="M 631.5,430.5 C 634.166,430.066 635.333,431.066 635,433.5C 632.342,434.694 631.176,433.694 631.5,430.5 Z"/></g>
<g><path style="opacity:1" fill="#3e71ac" d="M 588.5,431.5 C 590.346,431.222 591.68,431.889 592.5,433.5C 591.68,435.111 590.346,435.778 588.5,435.5C 588.5,434.167 588.5,432.833 588.5,431.5 Z"/></g>
<g><path style="opacity:1" fill="#2f68a6" d="M 817.5,432.5 C 822.887,434.297 828.221,436.297 833.5,438.5C 834.386,439.325 834.719,440.325 834.5,441.5C 828.931,440.644 823.598,438.977 818.5,436.5C 817.571,435.311 817.238,433.978 817.5,432.5 Z"/></g>
<g><path style="opacity:1" fill="#2f67a6" d="M 402.5,434.5 C 403.833,434.5 405.167,434.5 406.5,434.5C 406.719,435.675 406.386,436.675 405.5,437.5C 400.5,439.5 395.5,441.5 390.5,443.5C 389.167,442.167 389.167,440.833 390.5,439.5C 394.6,437.808 398.6,436.141 402.5,434.5 Z"/></g>
<g><path style="opacity:1" fill="#366ba8" d="M 697.5,447.5 C 700.5,447.5 703.5,447.5 706.5,447.5C 706.5,448.833 706.5,450.167 706.5,451.5C 700.477,451.502 694.477,451.835 688.5,452.5C 688.5,451.167 688.5,449.833 688.5,448.5C 691.713,448.81 694.713,448.477 697.5,447.5 Z"/></g>
<g><path style="opacity:1" fill="#4876af" d="M 717.5,446.5 C 718.833,446.5 720.167,446.5 721.5,446.5C 721.5,447.833 721.5,449.167 721.5,450.5C 720.167,450.5 718.833,450.5 717.5,450.5C 717.5,449.167 717.5,447.833 717.5,446.5 Z"/></g>
<g><path style="opacity:1" fill="#2f67a6" d="M 732.5,447.5 C 738.167,447.5 743.833,447.5 749.5,447.5C 749.5,448.833 749.5,450.167 749.5,451.5C 743.828,451.24 738.161,450.907 732.5,450.5C 732.5,449.5 732.5,448.5 732.5,447.5 Z"/></g>
<g><path style="opacity:1" fill="#4272ac" d="M 476.5,448.5 C 481.833,448.5 487.167,448.5 492.5,448.5C 492.5,449.833 492.5,451.167 492.5,452.5C 486.122,452.295 479.789,452.628 473.5,453.5C 473.5,452.167 473.5,450.833 473.5,449.5C 474.791,449.737 475.791,449.404 476.5,448.5 Z"/></g>
<g><path style="opacity:1" fill="#1f5fa1" d="M 503.5,448.5 C 504.5,448.5 505.5,448.5 506.5,448.5C 506.5,449.5 506.5,450.5 506.5,451.5C 505.5,451.5 504.5,451.5 503.5,451.5C 503.5,450.5 503.5,449.5 503.5,448.5 Z"/></g>
<g><path style="opacity:1" fill="#2c65a5" d="M 517.5,448.5 C 523.473,449.276 529.473,449.943 535.5,450.5C 535.5,451.5 535.5,452.5 535.5,453.5C 529.484,453.407 523.484,453.074 517.5,452.5C 517.5,451.167 517.5,449.833 517.5,448.5 Z"/></g>
<g><path style="opacity:1" fill="#356ba8" d="M 760.5,450.5 C 761.833,450.5 763.167,450.5 764.5,450.5C 764.5,451.5 764.5,452.5 764.5,453.5C 763.167,453.5 761.833,453.5 760.5,453.5C 760.5,452.5 760.5,451.5 760.5,450.5 Z"/></g>
<g><path style="opacity:1" fill="#3b6da9" d="M 459.5,451.5 C 460.5,451.5 461.5,451.5 462.5,451.5C 462.5,452.833 462.5,454.167 462.5,455.5C 461.5,455.5 460.5,455.5 459.5,455.5C 459.5,454.167 459.5,452.833 459.5,451.5 Z"/></g>
<g><path style="opacity:1" fill="#4776af" d="M 674.5,450.5 C 675.5,450.5 676.5,450.5 677.5,450.5C 677.5,451.833 677.5,453.167 677.5,454.5C 676.167,454.5 674.833,454.5 673.5,454.5C 673.433,453.041 673.766,451.708 674.5,450.5 Z"/></g>
<g><path style="opacity:1" fill="#1f5fa1" d="M 546.5,452.5 C 547.5,452.5 548.5,452.5 549.5,452.5C 549.5,453.5 549.5,454.5 549.5,455.5C 548.5,455.5 547.5,455.5 546.5,455.5C 546.5,454.5 546.5,453.5 546.5,452.5 Z"/></g>
<g><path style="opacity:1" fill="#2d66a5" d="M 775.5,452.5 C 781.561,453.682 787.561,455.182 793.5,457C 792.774,458.397 791.607,459.231 790,459.5C 785.213,458.18 780.379,457.18 775.5,456.5C 775.5,455.167 775.5,453.833 775.5,452.5 Z"/></g>
<g><path style="opacity:1" fill="#356aa8" d="M 445.5,453.5 C 446.5,453.5 447.5,453.5 448.5,453.5C 448.5,454.833 448.5,456.167 448.5,457.5C 442.93,458.601 437.43,459.934 432,461.5C 430.812,460.437 430.312,459.103 430.5,457.5C 435.809,456.924 440.809,455.591 445.5,453.5 Z"/></g>
<g><path style="opacity:1" fill="#376ca9" d="M 660.5,453.5 C 661.5,453.5 662.5,453.5 663.5,453.5C 663.5,454.833 663.5,456.167 663.5,457.5C 657.426,458.519 651.426,459.852 645.5,461.5C 645.5,460.167 645.5,458.833 645.5,457.5C 650.722,456.613 655.722,455.279 660.5,453.5 Z"/></g>
<g><path style="opacity:1" fill="#3068a6" d="M 560.5,455.5 C 566.767,456.233 572.767,457.9 578.5,460.5C 578,461.881 577,462.547 575.5,462.5C 570.833,461.333 566.167,460.167 561.5,459C 560.663,457.989 560.33,456.822 560.5,455.5 Z"/></g>
<g><path style="opacity:1" fill="#3e70ab" d="M 803.5,459.5 C 807.69,459.646 808.524,461.313 806,464.5C 804.108,463.383 803.275,461.716 803.5,459.5 Z"/></g>
<g><path style="opacity:1" fill="#366ca9" d="M 416.5,461.5 C 417.833,461.5 419.167,461.5 420.5,461.5C 418.838,466.536 417.505,466.536 416.5,461.5 Z"/></g>
<g><path style="opacity:1" fill="#2c66a5" d="M 631.5,462.5 C 633.346,462.222 634.68,462.889 635.5,464.5C 634.311,465.429 632.978,465.762 631.5,465.5C 631.5,464.5 631.5,463.5 631.5,462.5 Z"/></g>
<g><path style="opacity:1" fill="#3a6eaa" d="M 588.5,463.5 C 589.833,463.5 591.167,463.5 592.5,463.5C 592.778,465.346 592.111,466.68 590.5,467.5C 588.889,466.68 588.222,465.346 588.5,463.5 Z"/></g>
<g><path style="opacity:1" fill="#3269a7" d="M 817.5,464.5 C 822.91,466.026 828.244,467.859 833.5,470C 834.337,471.011 834.67,472.178 834.5,473.5C 828.686,472.173 823.019,470.34 817.5,468C 816.829,467.014 816.829,465.847 817.5,464.5 Z"/></g>
<g><path style="opacity:1" fill="#3168a7" d="M 403.5,465.5 C 404.5,465.5 405.5,465.5 406.5,465.5C 406.5,466.833 406.5,468.167 406.5,469.5C 400.903,471.365 395.237,473.032 389.5,474.5C 389.33,473.178 389.663,472.011 390.5,471C 395.056,469.434 399.39,467.601 403.5,465.5 Z"/></g>
<g><path style="opacity:1" fill="#8bacce" d="M 714.5,468.5 C 717.962,467.518 721.629,467.185 725.5,467.5C 725.768,469.099 725.434,470.432 724.5,471.5C 724.5,470.5 724.5,469.5 724.5,468.5C 721.167,468.5 717.833,468.5 714.5,468.5 Z"/></g>
<g><path style="opacity:1" fill="#2662a3" d="M 714.5,468.5 C 717.833,468.5 721.167,468.5 724.5,468.5C 724.5,469.5 724.5,470.5 724.5,471.5C 718.455,471.303 712.455,471.637 706.5,472.5C 706.5,471.167 706.5,469.833 706.5,468.5C 709.167,468.5 711.833,468.5 714.5,468.5 Z"/></g>
<g><path style="opacity:1" fill="#1f5ea1" d="M 736.5,468.5 C 737.5,468.5 738.5,468.5 739.5,468.5C 739.5,469.5 739.5,470.5 739.5,471.5C 738.5,471.5 737.5,471.5 736.5,471.5C 736.5,470.5 736.5,469.5 736.5,468.5 Z"/></g>
<g><path style="opacity:1" fill="#1f5ea1" d="M 484.5,469.5 C 485.5,469.5 486.5,469.5 487.5,469.5C 487.5,470.5 487.5,471.5 487.5,472.5C 486.5,472.5 485.5,472.5 484.5,472.5C 484.5,471.5 484.5,470.5 484.5,469.5 Z"/></g>
<g><path style="opacity:1" fill="#4171ac" d="M 498.5,469.5 C 504.833,469.5 511.167,469.5 517.5,469.5C 517.5,470.833 517.5,472.167 517.5,473.5C 511.167,473.5 504.833,473.5 498.5,473.5C 498.5,472.167 498.5,470.833 498.5,469.5 Z"/></g>
<g><path style="opacity:1" fill="#396da9" d="M 750.5,468.5 C 756.5,468.833 762.5,469.167 768.5,469.5C 768.5,470.833 768.5,472.167 768.5,473.5C 762.509,473.034 756.509,472.701 750.5,472.5C 750.5,471.167 750.5,469.833 750.5,468.5 Z"/></g>
<g><path style="opacity:1" fill="#3b6eaa" d="M 467.5,469.5 C 469.5,469.5 471.5,469.5 473.5,469.5C 473.5,470.833 473.5,472.167 473.5,473.5C 467.185,474.11 460.851,474.443 454.5,474.5C 454.5,473.5 454.5,472.5 454.5,471.5C 459.049,471.376 463.382,470.709 467.5,469.5 Z"/></g>
<g><path style="opacity:1" fill="#396ca9" d="M 692.5,469.5 C 693.5,469.5 694.5,469.5 695.5,469.5C 695.5,470.833 695.5,472.167 695.5,473.5C 694.5,473.5 693.5,473.5 692.5,473.5C 692.5,472.167 692.5,470.833 692.5,469.5 Z"/></g>
<g><path style="opacity:1" fill="#1f5ea1" d="M 528.5,471.5 C 529.5,471.5 530.5,471.5 531.5,471.5C 531.5,472.5 531.5,473.5 531.5,474.5C 530.5,474.5 529.5,474.5 528.5,474.5C 528.5,473.5 528.5,472.5 528.5,471.5 Z"/></g>
<g><path style="opacity:1" fill="#3068a6" d="M 672.5,472.5 C 675.5,472.5 678.5,472.5 681.5,472.5C 681.5,473.5 681.5,474.5 681.5,475.5C 675.425,476.129 669.425,477.129 663.5,478.5C 663.33,477.178 663.663,476.011 664.5,475C 667.379,474.454 670.046,473.621 672.5,472.5 Z"/></g>
<g><path style="opacity:1" fill="#2a65a5" d="M 780.5,472.5 C 781.5,472.5 782.5,472.5 783.5,472.5C 783.5,473.5 783.5,474.5 783.5,475.5C 780.433,475.879 779.433,474.879 780.5,472.5 Z"/></g>
<g><path style="opacity:1" fill="#4776af" d="M 440.5,473.5 C 441.833,473.5 443.167,473.5 444.5,473.5C 444.833,476.5 443.5,477.833 440.5,477.5C 440.5,476.167 440.5,474.833 440.5,473.5 Z"/></g>
<g><path style="opacity:1" fill="#3067a6" d="M 542.5,473.5 C 548.539,474.284 554.539,475.284 560.5,476.5C 560.5,477.5 560.5,478.5 560.5,479.5C 554.511,478.74 548.511,478.073 542.5,477.5C 542.5,476.167 542.5,474.833 542.5,473.5 Z"/></g>
<g><path style="opacity:1" fill="#3168a6" d="M 794.5,474.5 C 800.615,475.482 806.615,476.982 812.5,479C 811.774,480.397 810.607,481.231 809,481.5C 804.237,480.123 799.404,479.123 794.5,478.5C 794.5,477.167 794.5,475.833 794.5,474.5 Z"/></g>
<g><path style="opacity:1" fill="#366ba8" d="M 422.5,476.5 C 424.833,476.5 427.167,476.5 429.5,476.5C 429.5,477.5 429.5,478.5 429.5,479.5C 423.506,480.832 417.506,482.165 411.5,483.5C 411.238,482.022 411.571,480.689 412.5,479.5C 416.071,478.919 419.404,477.919 422.5,476.5 Z"/></g>
<g><path style="opacity:1" fill="#2562a3" d="M 648.5,479.5 C 649.568,478.566 650.901,478.232 652.5,478.5C 652.5,479.5 652.5,480.5 652.5,481.5C 650.801,481.473 649.467,480.806 648.5,479.5 Z"/></g>
<g><path style="opacity:1" fill="#2c66a5" d="M 571.5,479.5 C 572.5,479.5 573.5,479.5 574.5,479.5C 574.762,480.978 574.429,482.311 573.5,483.5C 571.889,482.68 571.222,481.346 571.5,479.5 Z"/></g>
<g><path style="opacity:1" fill="#386ca9" d="M 635.5,481.5 C 636.5,481.5 637.5,481.5 638.5,481.5C 638.5,482.833 638.5,484.167 638.5,485.5C 634.915,486.583 631.249,487.249 627.5,487.5C 627.281,486.325 627.614,485.325 628.5,484.5C 631.016,483.67 633.35,482.67 635.5,481.5 Z"/></g>
<g><path style="opacity:1" fill="#386daa" d="M 822.5,481.5 C 827.757,482.97 827.757,484.304 822.5,485.5C 822.5,484.167 822.5,482.833 822.5,481.5 Z"/></g>
<g><path style="opacity:1" fill="#3f71ac" d="M 398.5,482.5 C 400.912,482.694 401.912,484.027 401.5,486.5C 400.167,486.5 398.833,486.5 397.5,486.5C 397.433,485.041 397.766,483.708 398.5,482.5 Z"/></g>
<g><path style="opacity:1" fill="#376ca9" d="M 585.5,483.5 C 589.167,484.167 592.833,484.833 596.5,485.5C 596.853,487.635 596.02,488.968 594,489.5C 591.5,488.667 589,487.833 586.5,487C 585.663,485.989 585.33,484.822 585.5,483.5 Z"/></g>
<g><path style="opacity:1" fill="#3369a7" d="M 836.5,486.5 C 842.978,487.104 848.978,489.104 854.5,492.5C 854.113,493.72 853.28,494.387 852,494.5C 847.129,492.932 842.296,491.265 837.5,489.5C 836.614,488.675 836.281,487.675 836.5,486.5 Z"/></g>
<g><path style="opacity:1" fill="#356aa8" d="M 382.5,487.5 C 383.873,487.343 385.207,487.51 386.5,488C 387.711,488.893 387.711,489.726 386.5,490.5C 380.992,492.781 375.325,494.448 369.5,495.5C 369.33,494.178 369.663,493.011 370.5,492C 374.715,490.766 378.715,489.266 382.5,487.5 Z"/></g>
<g><path style="opacity:1" fill="#356ba8" d="M 719.5,504.5 C 725.5,504.5 731.5,504.5 737.5,504.5C 737.5,505.833 737.5,507.167 737.5,508.5C 731.5,508.5 725.5,508.5 719.5,508.5C 719.5,507.167 719.5,505.833 719.5,504.5 Z"/></g>
<g><path style="opacity:1" fill="#4374ae" d="M 748.5,504.5 C 749.833,504.5 751.167,504.5 752.5,504.5C 752.5,505.833 752.5,507.167 752.5,508.5C 751.167,508.5 749.833,508.5 748.5,508.5C 748.5,507.167 748.5,505.833 748.5,504.5 Z"/></g>
<g><path style="opacity:1" fill="#d09a3d" d="M 127.5,506.5 C 146.719,505.551 155.552,514.551 154,533.5C 151.86,540.974 147.026,545.807 139.5,548C 125.956,550.48 116.789,545.314 112,532.5C 110.748,519.935 115.915,511.268 127.5,506.5 Z"/></g>
<g><path style="opacity:1" fill="#1f5fa1" d="M 471.5,506.5 C 472.5,506.5 473.5,506.5 474.5,506.5C 474.5,507.5 474.5,508.5 474.5,509.5C 473.5,509.5 472.5,509.5 471.5,509.5C 471.5,508.5 471.5,507.5 471.5,506.5 Z"/></g>
<g><path style="opacity:1" fill="#3368a7" d="M 486.5,506.5 C 492.5,506.5 498.5,506.5 504.5,506.5C 504.5,507.833 504.5,509.167 504.5,510.5C 498.509,510.034 492.509,509.701 486.5,509.5C 486.5,508.5 486.5,507.5 486.5,506.5 Z"/></g>
<g><path style="opacity:1" fill="#1f5ea1" d="M 705.5,506.5 C 706.5,506.5 707.5,506.5 708.5,506.5C 708.5,507.5 708.5,508.5 708.5,509.5C 707.5,509.5 706.5,509.5 705.5,509.5C 705.5,508.5 705.5,507.5 705.5,506.5 Z"/></g>
<g><path style="opacity:1" fill="#2c66a5" d="M 763.5,505.5 C 769.479,506.331 775.479,506.997 781.5,507.5C 781.5,508.5 781.5,509.5 781.5,510.5C 775.5,510.167 769.5,509.833 763.5,509.5C 763.5,508.167 763.5,506.833 763.5,505.5 Z"/></g>
<g><path style="opacity:1" fill="#3369a7" d="M 447.5,507.5 C 451.833,507.5 456.167,507.5 460.5,507.5C 460.5,508.5 460.5,509.5 460.5,510.5C 454.49,511.094 448.49,511.76 442.5,512.5C 442.5,511.167 442.5,509.833 442.5,508.5C 444.415,508.784 446.081,508.451 447.5,507.5 Z"/></g>
<g><path style="opacity:1" fill="#2261a2" d="M 515.5,507.5 C 516.5,507.5 517.5,507.5 518.5,507.5C 518.5,508.5 518.5,509.5 518.5,510.5C 517.5,510.5 516.5,510.5 515.5,510.5C 515.5,509.5 515.5,508.5 515.5,507.5 Z"/></g>
<g><path style="opacity:1" fill="#356aa7" d="M 689.5,507.5 C 691.167,507.5 692.833,507.5 694.5,507.5C 694.5,508.833 694.5,510.167 694.5,511.5C 688.474,511.949 682.474,512.615 676.5,513.5C 676.5,512.5 676.5,511.5 676.5,510.5C 680.983,509.627 685.317,508.627 689.5,507.5 Z"/></g>
<g><path style="opacity:1" fill="#346aa7" d="M 529.5,509.5 C 535.5,510.167 541.5,510.833 547.5,511.5C 547.5,512.833 547.5,514.167 547.5,515.5C 541.416,514.93 535.416,513.93 529.5,512.5C 529.5,511.5 529.5,510.5 529.5,509.5 Z"/></g>
<g><path style="opacity:1" fill="#3a6ca9" d="M 792.5,509.5 C 793.5,509.5 794.5,509.5 795.5,509.5C 795.5,510.833 795.5,512.167 795.5,513.5C 794.5,513.5 793.5,513.5 792.5,513.5C 792.5,512.167 792.5,510.833 792.5,509.5 Z"/></g>
<g><path style="opacity:1" fill="#3169a7" d="M 428.5,510.5 C 429.5,510.5 430.5,510.5 431.5,510.5C 431.5,511.833 431.5,513.167 431.5,514.5C 430.5,514.5 429.5,514.5 428.5,514.5C 428.5,513.167 428.5,511.833 428.5,510.5 Z"/></g>
<g><path style="opacity:1" fill="#3369a7" d="M 806.5,512.5 C 812.546,513.243 818.546,514.243 824.5,515.5C 824.778,517.346 824.111,518.68 822.5,519.5C 817.965,517.822 813.298,516.655 808.5,516C 807.027,515.29 806.36,514.124 806.5,512.5 Z"/></g>
<g><path style="opacity:1" fill="#d0993c" d="M 1095.5,512.5 C 1117.35,510.514 1126.52,520.18 1123,541.5C 1116.85,552.116 1107.68,555.949 1095.5,553C 1084.01,547.846 1079.51,539.013 1082,526.5C 1084.69,519.981 1089.19,515.314 1095.5,512.5 Z"/></g>
<g><path style="opacity:1" fill="#3369a7" d="M 411.5,513.5 C 413.5,513.5 415.5,513.5 417.5,513.5C 417.5,514.5 417.5,515.5 417.5,516.5C 411.5,517.833 405.5,519.167 399.5,520.5C 399.5,519.167 399.5,517.833 399.5,516.5C 403.774,516.13 407.774,515.13 411.5,513.5 Z"/></g>
<g><path style="opacity:1" fill="#1f5ea1" d="M 662.5,513.5 C 663.5,513.5 664.5,513.5 665.5,513.5C 665.5,514.5 665.5,515.5 665.5,516.5C 664.5,516.5 663.5,516.5 662.5,516.5C 662.5,515.5 662.5,514.5 662.5,513.5 Z"/></g>
<g><path style="opacity:1" fill="#4172ad" d="M 558.5,514.5 C 559.5,514.5 560.5,514.5 561.5,514.5C 561.5,515.833 561.5,517.167 561.5,518.5C 558.046,518.733 557.046,517.4 558.5,514.5 Z"/></g>
<g><path style="opacity:1" fill="#366ba8" d="M 647.5,516.5 C 648.833,516.5 650.167,516.5 651.5,516.5C 651.67,517.822 651.337,518.989 650.5,520C 645.48,521.395 640.48,522.895 635.5,524.5C 633.997,523.41 633.664,522.243 634.5,521C 639.002,519.635 643.336,518.135 647.5,516.5 Z"/></g>
<g><path style="opacity:1" fill="#386ca9" d="M 572.5,517.5 C 577.827,519.162 583.16,520.829 588.5,522.5C 589.386,523.325 589.719,524.325 589.5,525.5C 584.399,524.857 579.399,523.691 574.5,522C 572.893,520.951 572.227,519.451 572.5,517.5 Z"/></g>
<g><path style="opacity:1" fill="#4072ac" d="M 834.5,518.5 C 836.346,518.222 837.68,518.889 838.5,520.5C 837.68,522.111 836.346,522.778 834.5,522.5C 834.5,521.167 834.5,519.833 834.5,518.5 Z"/></g>
<g><path style="opacity:1" fill="#2964a4" d="M 385.5,520.5 C 387.346,520.222 388.68,520.889 389.5,522.5C 388.311,523.429 386.978,523.762 385.5,523.5C 385.5,522.5 385.5,521.5 385.5,520.5 Z"/></g>
<g><path style="opacity:1" fill="#386ca9" d="M 848.5,522.5 C 854.58,524.357 860.58,526.523 866.5,529C 866.002,530.158 865.169,530.991 864,531.5C 859.5,530 855,528.5 850.5,527C 848.893,525.951 848.227,524.451 848.5,522.5 Z"/></g>
<g><path style="opacity:1" fill="#346aa8" d="M 370.5,524.5 C 371.873,524.343 373.207,524.51 374.5,525C 375.711,525.893 375.711,526.726 374.5,527.5C 369.704,529.265 364.871,530.932 360,532.5C 357.659,531.993 357.159,530.826 358.5,529C 362.715,527.766 366.715,526.266 370.5,524.5 Z"/></g>
<g><path style="opacity:1" fill="#769cc5" d="M 743.5,529.5 C 743.5,528.5 743.5,527.5 743.5,526.5C 737.833,526.5 732.167,526.5 726.5,526.5C 726.5,527.5 726.5,528.5 726.5,529.5C 725.566,528.432 725.232,527.099 725.5,525.5C 731.833,525.5 738.167,525.5 744.5,525.5C 744.768,527.099 744.434,528.432 743.5,529.5 Z"/></g>
<g><path style="opacity:1" fill="#2160a1" d="M 743.5,529.5 C 737.833,529.5 732.167,529.5 726.5,529.5C 726.5,528.5 726.5,527.5 726.5,526.5C 732.167,526.5 737.833,526.5 743.5,526.5C 743.5,527.5 743.5,528.5 743.5,529.5 Z"/></g>
<g><path style="opacity:1" fill="#1f5fa1" d="M 755.5,526.5 C 756.5,526.5 757.5,526.5 758.5,526.5C 758.5,527.5 758.5,528.5 758.5,529.5C 757.5,529.5 756.5,529.5 755.5,529.5C 755.5,528.5 755.5,527.5 755.5,526.5 Z"/></g>
<g><path style="opacity:1" fill="#1f5ea1" d="M 465.5,527.5 C 466.5,527.5 467.5,527.5 468.5,527.5C 468.5,528.5 468.5,529.5 468.5,530.5C 467.5,530.5 466.5,530.5 465.5,530.5C 465.5,529.5 465.5,528.5 465.5,527.5 Z"/></g>
<g><path style="opacity:1" fill="#2361a2" d="M 497.5,527.5 C 497.5,528.5 497.5,529.5 497.5,530.5C 491.5,530.5 485.5,530.5 479.5,530.5C 479.5,529.5 479.5,528.5 479.5,527.5C 485.5,527.5 491.5,527.5 497.5,527.5 Z"/></g>
<g><path style="opacity:1" fill="#366ba8" d="M 711.5,527.5 C 712.833,527.5 714.167,527.5 715.5,527.5C 715.5,528.5 715.5,529.5 715.5,530.5C 714.167,530.5 712.833,530.5 711.5,530.5C 711.5,529.5 711.5,528.5 711.5,527.5 Z"/></g>
<g><path style="opacity:1" fill="#2c66a5" d="M 769.5,527.5 C 775.536,527.36 781.536,527.693 787.5,528.5C 787.5,529.5 787.5,530.5 787.5,531.5C 781.484,531.407 775.484,531.074 769.5,530.5C 769.5,529.5 769.5,528.5 769.5,527.5 Z"/></g>
<g><path style="opacity:1" fill="#2663a3" d="M 444.5,528.5 C 447.833,528.5 451.167,528.5 454.5,528.5C 454.5,529.5 454.5,530.5 454.5,531.5C 448.753,531.594 443.086,532.26 437.5,533.5C 436.571,532.311 436.238,530.978 436.5,529.5C 439.385,529.806 442.052,529.473 444.5,528.5 Z"/></g>
<g><path style="opacity:1" fill="#3b6eaa" d="M 696.5,528.5 C 697.833,528.5 699.167,528.5 700.5,528.5C 700.5,529.833 700.5,531.167 700.5,532.5C 694.379,532.853 688.379,533.853 682.5,535.5C 682.238,534.022 682.571,532.689 683.5,531.5C 687.977,530.595 692.311,529.595 696.5,528.5 Z"/></g>
<g><path style="opacity:1" fill="#9eb9d6" d="M 497.5,527.5 C 498.434,528.568 498.768,529.901 498.5,531.5C 491.978,531.823 485.645,531.49 479.5,530.5C 485.5,530.5 491.5,530.5 497.5,530.5C 497.5,529.5 497.5,528.5 497.5,527.5 Z"/></g>
<g><path style="opacity:1" fill="#396da9" d="M 523.5,530.5 C 529.5,531.167 535.5,531.833 541.5,532.5C 541.5,533.833 541.5,535.167 541.5,536.5C 535.552,535.398 529.552,534.731 523.5,534.5C 523.5,533.167 523.5,531.833 523.5,530.5 Z"/></g>
<g><path style="opacity:1" fill="#376ba8" d="M 798.5,530.5 C 799.5,530.5 800.5,530.5 801.5,530.5C 801.5,531.833 801.5,533.167 801.5,534.5C 800.5,534.5 799.5,534.5 798.5,534.5C 798.5,533.167 798.5,531.833 798.5,530.5 Z"/></g>
<g><path style="opacity:1" fill="#507fb4" d="M 508.5,528.5 C 509.833,528.5 511.167,528.5 512.5,528.5C 512.5,529.833 512.5,531.167 512.5,532.5C 511.167,532.5 509.833,532.5 508.5,532.5C 508.5,531.167 508.5,529.833 508.5,528.5 Z"/></g>
<g><path style="opacity:1" fill="#4574ae" d="M 421.5,531.5 C 422.833,531.5 424.167,531.5 425.5,531.5C 425.5,532.833 425.5,534.167 425.5,535.5C 422.5,535.833 421.167,534.5 421.5,531.5 Z"/></g>
<g><path style="opacity:1" fill="#3268a7" d="M 812.5,533.5 C 818.584,534.07 824.584,535.07 830.5,536.5C 830.778,538.346 830.111,539.68 828.5,540.5C 823.314,538.549 817.981,537.215 812.5,536.5C 812.5,535.5 812.5,534.5 812.5,533.5 Z"/></g>
<g><path style="opacity:1" fill="#366ba8" d="M 405.5,534.5 C 407.5,534.5 409.5,534.5 411.5,534.5C 411.67,535.822 411.337,536.989 410.5,538C 404.848,539.274 399.181,540.441 393.5,541.5C 393.5,540.167 393.5,538.833 393.5,537.5C 397.8,537.281 401.8,536.281 405.5,534.5 Z"/></g>
<g><path style="opacity:1" fill="#3269a7" d="M 668.5,534.5 C 669.833,534.5 671.167,534.5 672.5,534.5C 672.5,535.5 672.5,536.5 672.5,537.5C 671.167,537.5 669.833,537.5 668.5,537.5C 668.5,536.5 668.5,535.5 668.5,534.5 Z"/></g>
<g><path style="opacity:1" fill="#4576af" d="M 551.5,535.5 C 552.833,535.5 554.167,535.5 555.5,535.5C 555.5,536.833 555.5,538.167 555.5,539.5C 554.167,539.5 552.833,539.5 551.5,539.5C 551.5,538.167 551.5,536.833 551.5,535.5 Z"/></g>
<g><path style="opacity:1" fill="#336aa7" d="M 654.5,537.5 C 656.59,537.45 657.923,538.45 658.5,540.5C 652.575,542.481 646.575,544.148 640.5,545.5C 640.33,544.178 640.663,543.011 641.5,542C 646.002,540.635 650.336,539.135 654.5,537.5 Z"/></g>
<g><path style="opacity:1" fill="#376ba8" d="M 565.5,538.5 C 571.593,540.191 577.593,542.191 583.5,544.5C 582.829,545.946 581.662,546.612 580,546.5C 575.87,545.184 571.703,544.017 567.5,543C 565.893,541.951 565.227,540.451 565.5,538.5 Z"/></g>
<g><path style="opacity:1" fill="#4172ac" d="M 840.5,539.5 C 842.346,539.222 843.68,539.889 844.5,541.5C 843.68,543.111 842.346,543.778 840.5,543.5C 840.5,542.167 840.5,540.833 840.5,539.5 Z"/></g>
<g><path style="opacity:1" fill="#3e70ab" d="M 379.5,541.5 C 381.346,541.222 382.68,541.889 383.5,543.5C 382.68,545.111 381.346,545.778 379.5,545.5C 379.5,544.167 379.5,542.833 379.5,541.5 Z"/></g>
<g><path style="opacity:1" fill="#2c66a5" d="M 854.5,544.5 C 860.697,545.621 866.697,547.454 872.5,550C 872.002,551.158 871.169,551.991 870,552.5C 865.129,550.932 860.296,549.265 855.5,547.5C 854.614,546.675 854.281,545.675 854.5,544.5 Z"/></g>
<g><path style="opacity:1" fill="#2b66a5" d="M 365.5,545.5 C 366.833,545.5 368.167,545.5 369.5,545.5C 369.719,546.675 369.386,547.675 368.5,548.5C 363.704,550.265 358.871,551.932 354,553.5C 352.831,552.991 351.998,552.158 351.5,551C 356.306,549.237 360.972,547.404 365.5,545.5 Z"/></g>
<g><path style="opacity:1" fill="#f5f8fa" d="M 489.5,552.5 C 515.957,551.897 542.29,553.397 568.5,557C 582.059,559.297 594.725,563.963 606.5,571C 608.5,573 610.5,575 612.5,577C 551.171,580.123 490.838,574.123 431.5,559C 450.892,556.038 470.225,553.871 489.5,552.5 Z"/></g>
<g><path style="opacity:1" fill="#f5f8fa" d="M 677.5,554.5 C 708.463,554.069 739.13,556.902 769.5,563C 773.891,564.181 778.224,565.514 782.5,567C 758.297,571.567 733.964,575.234 709.5,578C 679.453,580.332 649.453,579.999 619.5,577C 629.728,566.718 642.062,560.385 656.5,558C 663.653,556.903 670.653,555.737 677.5,554.5 Z"/></g>
<g><path style="opacity:1" fill="#f8fafb" d="M 226.5,588.5 C 486.167,588.5 745.833,588.5 1005.5,588.5C 1004.94,596.844 1004.27,605.177 1003.5,613.5C 745.167,613.5 486.833,613.5 228.5,613.5C 227.247,605.22 226.58,596.887 226.5,588.5 Z"/></g>
<g><path style="opacity:1" fill="#6bcaeb" d="M 228.5,614.5 C 228.5,614.167 228.5,613.833 228.5,613.5C 486.833,613.5 745.167,613.5 1003.5,613.5C 1003.74,614.791 1003.4,615.791 1002.5,616.5C 744.835,614.501 486.835,613.834 228.5,614.5 Z"/></g>
<g><path style="opacity:1" fill="#1aaee1" d="M 228.5,614.5 C 486.835,613.834 744.835,614.501 1002.5,616.5C 983.862,736.213 924.529,829.713 824.5,897C 725.541,957.747 619.874,973.08 507.5,943C 393.311,906.499 310.811,833.999 260,725.5C 257.876,720.924 256.043,716.257 254.5,711.5C 255.347,710.034 256.68,709.2 258.5,709C 270.814,706 282.481,707.666 293.5,714C 302.625,715.514 310.625,713.181 317.5,707C 322.5,702 327.5,697 332.5,692C 326.457,694.107 320.124,695.273 313.5,695.5C 311.167,695.333 308.833,695.167 306.5,695C 300.898,692.799 295.231,690.799 289.5,689C 286.167,688.333 282.833,688.333 279.5,689C 269.473,694.204 260.806,701.037 253.5,709.5C 240.953,678.981 232.62,647.314 228.5,614.5 Z"/></g>
<g><path style="opacity:1" fill="#fbfdfd" d="M 268.5,625.5 C 272.514,625.334 276.514,625.501 280.5,626C 287.598,629.588 295.098,631.755 303,632.5C 309.319,631.707 315.485,630.541 321.5,629C 313.866,638.65 304.532,645.983 293.5,651C 292,651.167 290.5,651.333 289,651.5C 281.142,649.491 273.308,647.325 265.5,645C 258.371,644.05 251.371,644.55 244.5,646.5C 244.167,646.167 243.833,645.833 243.5,645.5C 250.721,637.262 259.054,630.595 268.5,625.5 Z"/></g>
<g><path style="opacity:1" fill="#fbfdfd" d="M 376.5,625.5 C 385.398,624.743 393.731,626.576 401.5,631C 404.598,631.918 407.765,632.418 411,632.5C 417.33,631.704 423.497,630.537 429.5,629C 422.337,637.505 414.004,644.505 404.5,650C 402.091,650.935 399.591,651.435 397,651.5C 389.193,649.344 381.359,647.177 373.5,645C 366.382,644.108 359.382,644.608 352.5,646.5C 352.167,646.167 351.833,645.833 351.5,645.5C 358.721,637.262 367.054,630.595 376.5,625.5 Z"/></g>
<g><path style="opacity:1" fill="#167d4c" d="M 180.5,626.5 C 182.167,626.5 183.833,626.5 185.5,626.5C 186.123,631.404 187.123,636.237 188.5,641C 188.167,641.833 187.833,642.667 187.5,643.5C 167.13,647.808 146.796,652.308 126.5,657C 118.129,660.909 114.963,667.409 117,676.5C 118.356,684.354 122.856,689.021 130.5,690.5C 152.49,686.368 174.49,682.368 196.5,678.5C 198.142,684.044 199.142,689.71 199.5,695.5C 181.159,699.223 162.826,703.056 144.5,707C 121.557,712.95 107.391,704.45 102,681.5C 95.8441,660.309 103.011,646.142 123.5,639C 142.676,635.001 161.676,630.834 180.5,626.5 Z"/></g>
<g><path style="opacity:1" fill="#fbfdfd" d="M 594.5,626.5 C 597.187,626.336 599.854,626.503 602.5,627C 609.4,629.951 616.4,632.617 623.5,635C 630.977,635.366 638.31,634.699 645.5,633C 638.521,641.993 629.855,648.66 619.5,653C 615.833,653.667 612.167,653.667 608.5,653C 595.633,645.875 581.967,643.542 567.5,646C 575.056,637.244 584.056,630.744 594.5,626.5 Z"/></g>
<g><path style="opacity:1" fill="#fbfdfd" d="M 701.5,626.5 C 704.518,626.335 707.518,626.502 710.5,627C 717.4,629.951 724.4,632.617 731.5,635C 735.833,635.667 740.167,635.667 744.5,635C 747.509,633.972 750.509,633.305 753.5,633C 746.521,641.993 737.855,648.66 727.5,653C 723.833,653.667 720.167,653.667 716.5,653C 703.647,645.868 689.98,643.535 675.5,646C 682.959,637.684 691.625,631.184 701.5,626.5 Z"/></g>
<g><path style="opacity:1" fill="#fbfdfd" d="M 483.5,627.5 C 487.514,627.334 491.514,627.501 495.5,628C 502.277,631.259 509.277,633.926 516.5,636C 523.683,636.489 530.683,635.823 537.5,634C 529.887,642.624 520.887,649.29 510.5,654C 507.5,654.667 504.5,654.667 501.5,654C 488.374,646.55 474.374,643.883 459.5,646C 466.567,638.41 474.567,632.243 483.5,627.5 Z"/></g>
<g><path style="opacity:1" fill="#fbfcfd" d="M 807.5,628.5 C 811.182,628.335 814.848,628.501 818.5,629C 825.616,632.559 832.949,635.559 840.5,638C 847.612,638.488 854.612,638.155 861.5,637C 856.427,642.744 850.76,647.744 844.5,652C 840.538,654.574 836.205,656.074 831.5,656.5C 822.755,653.631 814.088,650.464 805.5,647C 798.476,646.831 791.476,646.331 784.5,645.5C 791.306,638.604 798.973,632.938 807.5,628.5 Z"/></g>
<g><path style="opacity:1" fill="#fafcfd" d="M 915.5,628.5 C 919.182,628.335 922.848,628.501 926.5,629C 933.586,632.541 940.919,635.541 948.5,638C 955.926,638.53 963.259,638.196 970.5,637C 962.818,645.835 953.485,652.169 942.5,656C 940.167,656.667 937.833,656.667 935.5,656C 928.394,652.447 921.061,649.447 913.5,647C 906.5,646.667 899.5,646.333 892.5,646C 899.215,638.768 906.882,632.935 915.5,628.5 Z"/></g>
<g><path style="opacity:1" fill="#187e4d" d="M 1057.5,639.5 C 1061.83,639.5 1066.17,639.5 1070.5,639.5C 1068.89,645.394 1067.72,651.394 1067,657.5C 1053.39,658.991 1047.72,666.657 1050,680.5C 1050.92,686.74 1054.42,688.906 1060.5,687C 1062,685.5 1063.5,684 1065,682.5C 1069.91,672.34 1075.58,662.674 1082,653.5C 1092.38,644.525 1103.88,643.025 1116.5,649C 1123,653.153 1127.16,658.987 1129,666.5C 1130.57,681.106 1127.24,694.439 1119,706.5C 1110.71,714.098 1100.88,717.431 1089.5,716.5C 1089.59,710.484 1089.93,704.484 1090.5,698.5C 1105.69,699.481 1113.35,692.314 1113.5,677C 1112.78,667.606 1107.78,663.273 1098.5,664C 1097,665.5 1095.5,667 1094,668.5C 1089.59,676.995 1084.92,685.328 1080,693.5C 1070.64,705.446 1059.14,708.28 1045.5,702C 1037.54,696.083 1033.54,688.083 1033.5,678C 1033.79,665.086 1038.46,654.086 1047.5,645C 1050.77,642.87 1054.1,641.037 1057.5,639.5 Z"/></g>
<g><path style="opacity:1" fill="#fbfdfd" d="M 254.5,711.5 C 253.662,711.158 253.328,710.492 253.5,709.5C 260.806,701.037 269.473,694.204 279.5,689C 282.833,688.333 286.167,688.333 289.5,689C 295.231,690.799 300.898,692.799 306.5,695C 308.833,695.167 311.167,695.333 313.5,695.5C 320.124,695.273 326.457,694.107 332.5,692C 327.5,697 322.5,702 317.5,707C 310.625,713.181 302.625,715.514 293.5,714C 282.481,707.666 270.814,706 258.5,709C 256.68,709.2 255.347,710.034 254.5,711.5 Z"/></g>
<g><path style="opacity:1" fill="#fcfdfd" d="M 387.5,688.5 C 396.034,687.955 404.034,689.788 411.5,694C 414.93,694.956 418.43,695.456 422,695.5C 428.45,695.209 434.617,694.042 440.5,692C 434.469,698.366 428.136,704.366 421.5,710C 417.242,712.808 412.575,714.308 407.5,714.5C 399.782,712.651 392.115,710.485 384.5,708C 380.167,707.333 375.833,707.333 371.5,708C 368.074,708.71 364.741,709.377 361.5,710C 368.9,701.082 377.567,693.915 387.5,688.5 Z"/></g>
<g><path style="opacity:1" fill="#fbfdfd" d="M 495.5,690.5 C 499.915,690.305 504.249,690.805 508.5,692C 517.719,697.855 527.719,700.188 538.5,699C 541.857,697.989 545.191,697.323 548.5,697C 541.24,705.615 532.574,712.281 522.5,717C 518.833,717.667 515.167,717.667 511.5,717C 504.723,713.741 497.723,711.074 490.5,709C 483.37,708.344 476.37,708.678 469.5,710C 476.959,701.684 485.625,695.184 495.5,690.5 Z"/></g>
<g><path style="opacity:1" fill="#fafcfd" d="M 605.5,689.5 C 607.527,689.338 609.527,689.505 611.5,690C 618.61,692.389 625.61,695.056 632.5,698C 640.402,699.13 648.069,698.296 655.5,695.5C 649.382,705.064 640.715,712.231 629.5,717C 626.5,717.667 623.5,717.667 620.5,717C 606.974,709.026 592.64,706.693 577.5,710C 585.354,700.955 594.687,694.122 605.5,689.5 Z"/></g>
<g><path style="opacity:1" fill="#fafcfd" d="M 710.5,690.5 C 714.514,690.334 718.514,690.501 722.5,691C 728.5,693.333 734.5,695.667 740.5,698C 745.5,698.667 750.5,698.667 755.5,698C 758.857,696.989 762.191,696.323 765.5,696C 758.416,703.088 750.749,709.422 742.5,715C 739.656,716.424 736.656,717.257 733.5,717.5C 724.518,714.68 715.518,711.846 706.5,709C 699.387,708.343 692.387,708.676 685.5,710C 692.874,702.108 701.208,695.608 710.5,690.5 Z"/></g>
<g><path style="opacity:1" fill="#fafcfd" d="M 819.5,691.5 C 823.582,691.344 827.582,691.844 831.5,693C 837.234,696.199 843.234,698.865 849.5,701C 857.628,701.77 865.628,701.436 873.5,700C 865.997,708.574 856.997,714.908 846.5,719C 843.167,719.667 839.833,719.667 836.5,719C 823.527,710.777 809.527,707.777 794.5,710C 801.63,702.012 809.964,695.846 819.5,691.5 Z"/></g>
<g><path style="opacity:1" fill="#fbfcfd" d="M 927.5,691.5 C 931.582,691.344 935.582,691.844 939.5,693C 945.5,695.667 951.5,698.333 957.5,701C 965.197,701.478 972.864,701.478 980.5,701C 973.437,709.41 964.77,715.41 954.5,719C 951.5,719.667 948.5,719.667 945.5,719C 939.5,716.333 933.5,713.667 927.5,711C 919.144,709.442 910.81,709.109 902.5,710C 909.63,702.012 917.964,695.846 927.5,691.5 Z"/></g>
<g><path style="opacity:1" fill="#167d4c" d="M 198.5,696.5 C 199.675,696.281 200.675,696.614 201.5,697.5C 203.961,702.393 205.794,707.393 207,712.5C 193.972,730.695 181.139,749.028 168.5,767.5C 168.833,767.833 169.167,768.167 169.5,768.5C 187.084,760.639 204.751,752.972 222.5,745.5C 225.102,750.371 227.435,755.371 229.5,760.5C 201.959,772.77 174.292,784.77 146.5,796.5C 143.705,791.077 141.038,785.577 138.5,780C 151.833,761.333 165.167,742.667 178.5,724C 160.496,731.159 142.496,738.659 124.5,746.5C 121.102,741.698 118.769,736.364 117.5,730.5C 144.672,719.409 171.672,708.076 198.5,696.5 Z"/></g>
<g><path style="opacity:1" fill="#167d4c" d="M 1044.5,707.5 C 1064.22,707.12 1081.06,713.787 1095,727.5C 1103.08,737.474 1105.75,748.807 1103,761.5C 1095.64,788.423 1078.14,800.256 1050.5,797C 1036.99,793.48 1025.49,786.646 1016,776.5C 1003.27,753.653 1006.77,733.486 1026.5,716C 1032.21,712.31 1038.21,709.477 1044.5,707.5 Z"/></g>
<g><path style="opacity:1" fill="#f6f9fa" d="M 1044.5,725.5 C 1060.38,725.837 1073.55,731.837 1084,743.5C 1090.67,760.473 1085.51,772.306 1068.5,779C 1052.79,780.32 1039.63,775.154 1029,763.5C 1021.59,745.554 1026.75,732.887 1044.5,725.5 Z"/></g>
<g><path style="opacity:1" fill="#fbfdfd" d="M 312.5,745.5 C 321.034,744.955 329.034,746.788 336.5,751C 345.806,753.419 354.806,752.586 363.5,748.5C 363.833,748.833 364.167,749.167 364.5,749.5C 357.842,757.982 349.842,764.816 340.5,770C 337.731,770.863 334.898,771.363 332,771.5C 324.457,769.542 316.957,767.375 309.5,765C 301.249,764.081 293.249,764.748 285.5,767C 293.512,758.36 302.512,751.194 312.5,745.5 Z"/></g>
<g><path style="opacity:1" fill="#fcfdfd" d="M 410.5,745.5 C 419.354,744.964 427.688,746.797 435.5,751C 438.764,751.939 442.097,752.439 445.5,752.5C 451.64,751.627 457.64,750.461 463.5,749C 455.95,758.226 446.95,765.56 436.5,771C 434.667,771.167 432.833,771.333 431,771.5C 423.165,769.509 415.332,767.343 407.5,765C 400.065,764.39 392.731,764.723 385.5,766C 392.57,757.412 400.903,750.578 410.5,745.5 Z"/></g>
<g><path style="opacity:1" fill="#fbfdfd" d="M 507.5,747.5 C 511.514,747.334 515.514,747.501 519.5,748C 525.951,751.226 532.618,753.893 539.5,756C 543.833,756.667 548.167,756.667 552.5,756C 555.545,755.086 558.545,754.419 561.5,754C 555.762,760.408 549.429,766.075 542.5,771C 537.194,774.034 531.527,775.034 525.5,774C 518.446,770.538 511.112,767.871 503.5,766C 496.359,765.278 489.359,765.611 482.5,767C 489.874,759.108 498.208,752.608 507.5,747.5 Z"/></g>
<g><path style="opacity:1" fill="#fbfdfd" d="M 598.5,746.5 C 601.518,746.335 604.518,746.502 607.5,747C 613.951,750.226 620.618,752.893 627.5,755C 632.167,755.667 636.833,755.667 641.5,755C 644.481,753.836 647.481,753.169 650.5,753C 643.521,761.993 634.855,768.66 624.5,773C 620.5,773.667 616.5,773.667 612.5,773C 599.933,766.153 586.6,763.819 572.5,766C 579.959,757.684 588.625,751.184 598.5,746.5 Z"/></g>
<g><path style="opacity:1" fill="#fafcfd" d="M 696.5,746.5 C 699.518,746.335 702.518,746.502 705.5,747C 712.167,749.667 718.833,752.333 725.5,755C 730.167,755.667 734.833,755.667 739.5,755C 742.77,753.679 746.103,753.013 749.5,753C 741.952,761.227 733.285,767.893 723.5,773C 719.5,773.667 715.5,773.667 711.5,773C 705.463,769.877 699.13,767.543 692.5,766C 684.705,765.244 677.038,765.577 669.5,767C 677.265,758.383 686.265,751.55 696.5,746.5 Z"/></g>
<g><path style="opacity:1" fill="#fbfdfd" d="M 793.5,748.5 C 796.85,748.335 800.183,748.502 803.5,749C 810.384,752.275 817.384,755.275 824.5,758C 832.295,758.756 839.962,758.423 847.5,757C 840.112,765.737 831.112,772.07 820.5,776C 818.167,776.667 815.833,776.667 813.5,776C 805.719,772.444 797.719,769.444 789.5,767C 782.422,766.412 775.422,766.412 768.5,767C 775.63,759.012 783.964,752.846 793.5,748.5 Z"/></g>
<g><path style="opacity:1" fill="#fafcfd" d="M 877.5,753.5 C 881.182,753.335 884.848,753.501 888.5,754C 895.843,757.006 903.177,760.006 910.5,763C 917.918,763.531 925.251,763.197 932.5,762C 926.079,768.425 919.079,774.091 911.5,779C 906.995,780.962 902.328,781.629 897.5,781C 890.616,777.725 883.616,774.725 876.5,772C 869.167,771.667 861.833,771.333 854.5,771C 861.215,763.768 868.882,757.935 877.5,753.5 Z"/></g>
<g><path style="opacity:1" fill="#167d4c" d="M 231.5,768.5 C 233.592,768.561 235.092,769.561 236,771.5C 238,774.833 240,778.167 242,781.5C 242.749,782.635 242.583,783.635 241.5,784.5C 216.038,798.8 190.705,813.3 165.5,828C 164.668,828.688 164.002,828.521 163.5,827.5C 160.433,823.091 157.767,818.424 155.5,813.5C 155.709,812.914 156.043,812.414 156.5,812C 181.89,797.978 206.89,783.478 231.5,768.5 Z"/></g>
<g><path style="opacity:1" fill="#167d4c" d="M 998.5,784.5 C 1004.95,784.231 1011.28,784.898 1017.5,786.5C 1017.83,787 1018.17,787.5 1018.5,788C 1016.34,793.143 1014.34,798.31 1012.5,803.5C 994.868,801.276 984.868,809.109 982.5,827C 982.796,831.889 984.296,836.389 987,840.5C 996.606,852.722 1009.11,858.555 1024.5,858C 1039.58,852.403 1046.25,841.57 1044.5,825.5C 1041.53,823.694 1038.69,821.694 1036,819.5C 1031.83,825.167 1027.67,830.833 1023.5,836.5C 1019.46,833.488 1015.46,830.488 1011.5,827.5C 1018.81,816.861 1026.48,806.528 1034.5,796.5C 1044.42,803.043 1054.25,809.71 1064,816.5C 1065.04,838.919 1056.54,856.752 1038.5,870C 1023.51,877.332 1008.51,877.332 993.5,870C 974.207,860.038 965.04,844.205 966,822.5C 970.968,804.707 981.801,792.04 998.5,784.5 Z"/></g>
<g><path style="opacity:1" fill="#167d4c" d="M 242.5,788.5 C 246.091,793.268 249.925,797.935 254,802.5C 254.667,803.5 254.667,804.5 254,805.5C 241.5,824 229,842.5 216.5,861C 238.432,854.468 260.265,847.301 282,839.5C 286.497,843.954 290.663,848.788 294.5,854C 264.209,863.93 233.875,873.764 203.5,883.5C 198.851,878.846 194.518,873.846 190.5,868.5C 207.844,841.805 225.177,815.138 242.5,788.5 Z"/></g>
<g><path style="opacity:1" fill="#fafcfd" d="M 369.5,809.5 C 377.55,810.125 385.216,812.292 392.5,816C 398.833,816.667 405.167,816.667 411.5,816C 414.089,814.686 416.756,814.019 419.5,814C 414.126,821.041 407.793,827.041 400.5,832C 396.538,834.574 392.205,836.074 387.5,836.5C 380.327,834.915 373.327,832.748 366.5,830C 358.054,829.267 349.72,829.6 341.5,831C 349.316,821.622 358.65,814.455 369.5,809.5 Z"/></g>
<g><path style="opacity:1" fill="#fafcfd" d="M 461.5,809.5 C 469.92,809.915 477.92,812.081 485.5,816C 491.5,816.667 497.5,816.667 503.5,816C 506.481,814.836 509.481,814.169 512.5,814C 505.337,822.505 497.004,829.505 487.5,835C 484.893,835.818 482.226,836.318 479.5,836.5C 472.758,834.633 466.092,832.466 459.5,830C 451.027,829.219 442.694,829.552 434.5,831C 441.959,821.687 450.959,814.52 461.5,809.5 Z"/></g>
<g><path style="opacity:1" fill="#fbfdfd" d="M 647.5,811.5 C 651.582,811.344 655.582,811.844 659.5,813C 665.287,815.894 671.287,818.227 677.5,820C 685.016,820.623 692.35,819.956 699.5,818C 692.521,826.993 683.855,833.66 673.5,838C 669.833,838.667 666.167,838.667 662.5,838C 649.645,830.875 635.979,828.541 621.5,831C 628.959,822.684 637.625,816.184 647.5,811.5 Z"/></g>
<g><path style="opacity:1" fill="#fbfdfd" d="M 734.5,811.5 C 737.85,811.335 741.183,811.502 744.5,812C 750.951,815.226 757.618,817.893 764.5,820C 768.5,820.667 772.5,820.667 776.5,820C 779.917,819.263 783.251,818.596 786.5,818C 779.521,826.993 770.855,833.66 760.5,838C 756.833,838.667 753.167,838.667 749.5,838C 736.645,830.875 722.979,828.541 708.5,831C 715.959,822.684 724.625,816.184 734.5,811.5 Z"/></g>
<g><path style="opacity:1" fill="#fbfdfd" d="M 545.5,812.5 C 549.846,812.334 554.179,812.501 558.5,813C 563.833,815.333 569.167,817.667 574.5,820C 582.973,820.781 591.306,820.448 599.5,819C 594.095,825.076 588.095,830.409 581.5,835C 577.385,837.654 572.885,839.154 568,839.5C 559.791,836.874 551.624,834.041 543.5,831C 536.114,830.444 528.781,830.444 521.5,831C 528.545,823.438 536.545,817.272 545.5,812.5 Z"/></g>
<g><path style="opacity:1" fill="#fbfdfd" d="M 831.5,813.5 C 835.514,813.334 839.514,813.501 843.5,814C 850.384,817.275 857.384,820.275 864.5,823C 871.275,823.799 877.942,823.299 884.5,821.5C 884.833,821.833 885.167,822.167 885.5,822.5C 878.195,831.152 869.195,837.318 858.5,841C 856.167,841.667 853.833,841.667 851.5,841C 844.616,837.725 837.616,834.725 830.5,832C 823.186,830.385 815.853,830.052 808.5,831C 815.215,823.768 822.882,817.935 831.5,813.5 Z"/></g>
<g><path style="opacity:1" fill="#f8fafb" d="M 1142.5,859.5 C 1164.16,885.835 1185.49,912.501 1206.5,939.5C 1192.49,957.345 1175.82,972.178 1156.5,984C 1139.5,992.167 1122.5,1000.33 1105.5,1008.5C 1079.46,987.971 1054.46,966.138 1030.5,943C 1032.17,941.333 1033.83,939.667 1035.5,938C 1080.68,924.637 1116.34,898.471 1142.5,859.5 Z"/></g>
<g><path style="opacity:1" fill="#157d4c" d="M 928.5,861.5 C 959.249,873.029 989.915,884.862 1020.5,897C 1015.96,901.709 1011.29,906.209 1006.5,910.5C 999.868,908.123 993.368,905.457 987,902.5C 978.667,910.833 970.333,919.167 962,927.5C 964.43,934.536 967.597,941.369 971.5,948C 967,952.5 962.5,957 958,961.5C 944.046,933.092 930.213,904.592 916.5,876C 916.862,874.775 917.362,873.609 918,872.5C 921.704,868.964 925.204,865.298 928.5,861.5 Z"/></g>
<g><path style="opacity:1" fill="#fbfdfd" d="M 429.5,866.5 C 437.954,866.928 445.954,869.095 453.5,873C 458.833,873.667 464.167,873.667 469.5,873C 473.169,871.645 476.835,870.645 480.5,870C 473.337,878.505 465.004,885.505 455.5,891C 452.759,891.977 449.925,892.477 447,892.5C 439.093,890.755 431.26,888.589 423.5,886C 419.5,885.333 415.5,885.333 411.5,886C 407.8,886.911 404.133,887.578 400.5,888C 408.711,878.589 418.377,871.422 429.5,866.5 Z"/></g>
<g><path style="opacity:1" fill="#fbfdfd" d="M 520.5,866.5 C 523.518,866.335 526.518,866.502 529.5,867C 535.231,868.799 540.898,870.799 546.5,873C 548.833,873.167 551.167,873.333 553.5,873.5C 560.455,873.286 567.122,872.12 573.5,870C 566.337,878.505 558.004,885.505 548.5,891C 545.759,891.977 542.925,892.477 540,892.5C 531.982,891.079 524.148,888.912 516.5,886C 512.5,885.333 508.5,885.333 504.5,886C 500.775,886.854 497.108,887.521 493.5,888C 501.476,879.37 510.476,872.204 520.5,866.5 Z"/></g>
<g><path style="opacity:1" fill="#fafcfd" d="M 603.5,866.5 C 605.857,866.337 608.19,866.503 610.5,867C 617.326,869.275 623.993,871.942 630.5,875C 638.973,875.781 647.306,875.448 655.5,874C 647.887,882.624 638.887,889.29 628.5,894C 625.5,894.667 622.5,894.667 619.5,894C 613.059,890.78 606.392,888.113 599.5,886C 592.114,885.444 584.781,885.444 577.5,886C 584.959,877.684 593.625,871.184 603.5,866.5 Z"/></g>
<g><path style="opacity:1" fill="#fafcfd" d="M 773.5,867.5 C 778.248,867.275 782.915,867.775 787.5,869C 800.343,876.058 813.676,877.392 827.5,873C 821.762,879.408 815.429,885.075 808.5,890C 804.389,892.704 799.889,894.204 795,894.5C 787.391,892.452 779.891,889.952 772.5,887C 764.422,886.401 756.422,886.401 748.5,887C 755.874,879.108 764.208,872.608 773.5,867.5 Z"/></g>
<g><path style="opacity:1" fill="#fafcfd" d="M 691.5,868.5 C 694.91,868.457 698.243,868.957 701.5,870C 707.053,872.61 712.719,874.943 718.5,877C 723.5,877.667 728.5,877.667 733.5,877C 736.82,875.884 740.153,875.217 743.5,875C 736.416,882.088 728.749,888.422 720.5,894C 717.656,895.424 714.656,896.257 711.5,896.5C 702.557,893.575 693.557,890.742 684.5,888C 677.371,887.277 670.371,887.61 663.5,889C 671.354,879.955 680.687,873.122 691.5,868.5 Z"/></g>
<g><path style="opacity:1" fill="#f2f7f7" d="M 938.5,882.5 C 949.149,887.157 959.816,891.824 970.5,896.5C 965.139,902.193 959.805,907.86 954.5,913.5C 948.375,903.584 943.042,893.25 938.5,882.5 Z"/></g>
<g><path style="opacity:1" fill="#f8fafb" d="M 104.5,884.5 C 106.017,884.511 107.184,885.177 108,886.5C 127.674,918.598 156.508,935.098 194.5,936C 195.167,936.667 195.833,937.333 196.5,938C 175.41,965.993 153.244,993.16 130,1019.5C 128.561,1021.45 126.728,1022.78 124.5,1023.5C 102.917,1019.92 83.5834,1011.42 66.5,998C 45.9301,980.942 29.2634,960.775 16.5,937.5C 45.8506,919.806 75.184,902.14 104.5,884.5 Z"/></g>
<g><path style="opacity:1" fill="#167d4c" d="M 301.5,860.5 C 317.631,875.462 333.631,890.629 349.5,906C 364.103,914.94 378.436,924.273 392.5,934C 402.944,942.457 405.444,952.957 400,965.5C 390.96,978.385 379.127,981.885 364.5,976C 366.646,978.795 367.813,981.961 368,985.5C 368.833,998.513 368.666,1011.51 367.5,1024.5C 361.663,1021.08 355.996,1017.42 350.5,1013.5C 349.667,999.512 349.167,985.512 349,971.5C 346.474,966.235 342.474,962.569 337,960.5C 336.228,960.645 335.561,960.978 335,961.5C 328.58,971.341 321.913,981.007 315,990.5C 310.042,987.277 305.209,983.944 300.5,980.5C 316.65,956.482 332.484,932.482 348,908.5C 345.618,911.427 343.118,914.261 340.5,917C 339.833,917.667 339.167,917.667 338.5,917C 327.015,906.349 315.682,895.516 304.5,884.5C 299.5,888.833 294.833,893.5 290.5,898.5C 301.684,908.847 312.184,919.514 322,930.5C 318.667,933.833 315.333,937.167 312,940.5C 301.015,930.349 290.182,920.016 279.5,909.5C 272.96,914.859 267.46,920.859 263,927.5C 274.333,938.167 285.667,948.833 297,959.5C 297.667,960.5 297.667,961.5 297,962.5C 293.985,965.683 290.818,968.683 287.5,971.5C 270.837,956.17 254.504,940.503 238.5,924.5C 259.521,903.146 280.521,881.813 301.5,860.5 Z"/></g>
<g><path style="opacity:1" fill="#fbfdfd" d="M 544.5,915.5 C 554.384,914.517 563.717,916.35 572.5,921C 576.113,921.884 579.78,922.384 583.5,922.5C 590.35,921.895 597.017,920.728 603.5,919C 596.032,926.807 587.699,933.473 578.5,939C 574.785,940.387 570.952,941.22 567,941.5C 558.774,939.535 550.607,937.369 542.5,935C 534.064,934.321 525.73,934.654 517.5,936C 525.491,927.689 534.491,920.856 544.5,915.5 Z"/></g>
<g><path style="opacity:1" fill="#fbfdfd" d="M 647.5,915.5 C 657.285,914.926 666.619,916.759 675.5,921C 678.764,921.939 682.097,922.439 685.5,922.5C 692.361,921.892 699.028,920.725 705.5,919C 699.059,925.71 692.059,931.71 684.5,937C 679.674,939.665 674.507,941.165 669,941.5C 660.879,939.191 652.712,937.024 644.5,935C 636.064,934.321 627.73,934.654 619.5,936C 627.693,927.424 637.027,920.59 647.5,915.5 Z"/></g>
<g><path style="opacity:1" fill="#177e4c" d="M 862.5,917.5 C 877.722,936.918 892.722,956.585 907.5,976.5C 919.806,968.027 931.972,959.361 944,950.5C 947.357,954.356 950.524,958.356 953.5,962.5C 936.677,975.078 919.677,987.411 902.5,999.5C 883.783,976.411 865.783,952.744 848.5,928.5C 853.236,924.814 857.903,921.147 862.5,917.5 Z"/></g>
<g><path style="opacity:1" fill="#f4f8f8" d="M 356.5,929.5 C 365.337,934.145 373.837,939.478 382,945.5C 385.839,951.967 384.673,957.467 378.5,962C 375.594,963.318 372.594,963.652 369.5,963C 360.831,958.334 352.498,953.168 344.5,947.5C 348.918,941.754 352.918,935.754 356.5,929.5 Z"/></g>
<g><path style="opacity:1" fill="#167d4c" d="M 817.5,944.5 C 821.03,948.558 823.196,953.225 824,958.5C 810.778,964.195 797.945,970.528 785.5,977.5C 787.901,983.971 791.067,989.971 795,995.5C 806,990.5 817,985.5 828,980.5C 830.933,984.03 833.1,988.03 834.5,992.5C 834.167,993.167 833.833,993.833 833.5,994.5C 822.924,999.372 812.424,1004.37 802,1009.5C 801.333,1010.5 801.333,1011.5 802,1012.5C 807.243,1022.48 812.076,1032.65 816.5,1043C 811.943,1046.29 806.943,1049.12 801.5,1051.5C 787.896,1024.89 774.563,998.056 761.5,971C 780.379,962.392 799.045,953.558 817.5,944.5 Z"/></g>
<g><path style="opacity:1" fill="#177d4c" d="M 420.5,953.5 C 434.507,953.003 447.173,956.836 458.5,965C 468.997,973.98 471.164,984.48 465,996.5C 460.11,994.638 455.276,992.638 450.5,990.5C 450.591,976.591 443.591,969.591 429.5,969.5C 421.541,970.092 419.375,974.092 423,981.5C 432.631,989.462 441.964,997.796 451,1006.5C 457.162,1016.95 456.828,1027.28 450,1037.5C 440.392,1047.46 428.892,1050.3 415.5,1046C 406.293,1042.82 398.127,1037.98 391,1031.5C 384.662,1022.03 382.829,1011.69 385.5,1000.5C 391.741,1001.64 397.741,1003.47 403.5,1006C 401.528,1020.9 408.194,1029.4 423.5,1031.5C 432.882,1031.29 437.048,1026.63 436,1017.5C 427.297,1009.13 418.297,1001.13 409,993.5C 398.132,975.936 401.966,962.603 420.5,953.5 Z"/></g>
<g><path style="opacity:1" fill="#f7fafa" d="M 188.5,969.5 C 235.473,1008.5 285.473,1043.34 338.5,1074C 508.256,1167.29 680.923,1172.95 856.5,1091C 922.931,1058.14 984.598,1018.31 1041.5,971.5C 1071.82,995.819 1101.82,1020.49 1131.5,1045.5C 1071.61,1105.97 1002.27,1152.81 923.5,1186C 754.917,1254.6 582.25,1266.94 405.5,1223C 330.647,1203.4 262.314,1170.74 200.5,1125C 180.797,1109.3 162.297,1092.14 145,1073.5C 137.095,1064.67 129.928,1055.33 123.5,1045.5C 145.158,1020.17 166.825,994.84 188.5,969.5 Z"/></g>
<g><path style="opacity:1" fill="#177e4c" d="M 479.5,973.5 C 485.574,974.519 491.574,975.852 497.5,977.5C 489.834,1005.83 482.001,1034.16 474,1062.5C 473.275,1063.06 472.442,1063.39 471.5,1063.5C 467.138,1062.43 462.805,1061.27 458.5,1060C 457.422,1059.33 456.755,1058.33 456.5,1057C 464.245,1029.19 471.911,1001.35 479.5,973.5 Z"/></g>
<g><path style="opacity:1" fill="#167d4c" d="M 723.5,978.5 C 754.136,975.64 772.302,989.306 778,1019.5C 780.642,1049.39 767.142,1066.56 737.5,1071C 710.762,1071.86 694.928,1059.02 690,1032.5C 685.183,1004.45 696.35,986.45 723.5,978.5 Z"/></g>
<g><path style="opacity:1" fill="#177e4c" d="M 501.5,981.5 C 525.187,985.338 548.854,989.338 572.5,993.5C 571.929,998.256 570.929,1002.92 569.5,1007.5C 568.5,1007.83 567.5,1008.17 566.5,1008.5C 558.6,1006.52 550.6,1005.19 542.5,1004.5C 538.167,1028.5 533.833,1052.5 529.5,1076.5C 523.757,1076.25 518.09,1075.42 512.5,1074C 511.919,1073.11 511.585,1072.11 511.5,1071C 515.705,1048.31 520.039,1025.64 524.5,1003C 524.245,1001.67 523.578,1000.67 522.5,1000C 514.808,998.795 507.141,997.461 499.5,996C 498.978,995.439 498.645,994.772 498.5,994C 499.439,989.802 500.439,985.636 501.5,981.5 Z"/></g>
<g><path style="opacity:1" fill="#177e4c" d="M 637.5,993.5 C 644.532,993.17 651.532,993.503 658.5,994.5C 648.667,1010.83 638.833,1027.17 629,1043.5C 628.5,1056.83 628.333,1070.16 628.5,1083.5C 622.5,1083.83 616.5,1084.17 610.5,1084.5C 610.652,1071.81 610.152,1059.14 609,1046.5C 597.253,1030.01 585.753,1013.34 574.5,996.5C 581.476,995.336 588.476,995.169 595.5,996C 603.372,1006.91 610.872,1018.07 618,1029.5C 625.288,1017.92 631.788,1005.92 637.5,993.5 Z"/></g>
<g><path style="opacity:1" fill="#f6f9fa" d="M 727.5,993.5 C 745.869,993.69 756.369,1003.02 759,1021.5C 761.938,1044.2 752.104,1055.37 729.5,1055C 717.585,1050.71 710.752,1042.21 709,1029.5C 703.86,1011.44 710.026,999.443 727.5,993.5 Z"/></g>
<g><path style="opacity:1" fill="#197e4d" d="M 930.5,1078.5 C 939.535,1091.54 947.869,1105.21 955.5,1119.5C 953.054,1122.23 950.054,1124.23 946.5,1125.5C 937.833,1120.83 929.167,1116.17 920.5,1111.5C 920.167,1111.83 919.833,1112.17 919.5,1112.5C 923.753,1119.34 927.753,1126.34 931.5,1133.5C 929.106,1136.05 926.273,1138.05 923,1139.5C 914.707,1125.75 906.541,1111.92 898.5,1098C 901.5,1096.17 904.5,1094.33 907.5,1092.5C 917.033,1097.93 926.7,1102.77 936.5,1107C 931.908,1099.82 927.575,1092.48 923.5,1085C 925.425,1082.37 927.758,1080.21 930.5,1078.5 Z"/></g>
<g><path style="opacity:1" fill="#197e4d" d="M 329.5,1091.5 C 334.146,1092.15 337.813,1094.32 340.5,1098C 337.72,1114.46 335.22,1130.96 333,1147.5C 329.501,1145.75 326.168,1143.75 323,1141.5C 323.499,1137.49 323.333,1133.49 322.5,1129.5C 318.398,1127.03 314.232,1124.7 310,1122.5C 307.011,1124.82 304.011,1127.15 301,1129.5C 297.747,1127.46 294.58,1125.29 291.5,1123C 304.065,1112.26 316.732,1101.76 329.5,1091.5 Z"/></g>
<g><path style="opacity:1" fill="#197e4d" d="M 357.5,1106.5 C 361.246,1107.54 364.579,1109.37 367.5,1112C 361.911,1122.51 356.577,1133.18 351.5,1144C 356.979,1148.24 362.979,1151.74 369.5,1154.5C 370.09,1158.02 368.923,1161.02 366,1163.5C 355.908,1158.54 346.075,1153.21 336.5,1147.5C 343.768,1133.96 350.768,1120.3 357.5,1106.5 Z"/></g>
<g><path style="opacity:1" fill="#1a7f4e" d="M 880.5,1106.5 C 895.797,1105.07 905.631,1111.73 910,1126.5C 911.759,1147.08 902.259,1156.91 881.5,1156C 871.47,1151.82 865.303,1144.32 863,1133.5C 861.359,1125.42 863.526,1118.59 869.5,1113C 873.096,1110.54 876.763,1108.37 880.5,1106.5 Z"/></g>
<g><path style="opacity:1" fill="#eef5f4" d="M 326.5,1107.5 C 327.336,1111.4 327.003,1115.4 325.5,1119.5C 323.004,1118.42 320.67,1117.09 318.5,1115.5C 320.882,1112.45 323.548,1109.79 326.5,1107.5 Z"/></g>
<g><path style="opacity:1" fill="#f5f9f9" d="M 882.5,1116.5 C 890.13,1116.57 895.297,1120.24 898,1127.5C 901.164,1135.01 899.33,1140.84 892.5,1145C 884.34,1146.51 878.84,1143.35 876,1135.5C 872.343,1126.95 874.509,1120.62 882.5,1116.5 Z"/></g>
<g><path style="opacity:1" fill="#197e4e" d="M 850.5,1121.5 C 853.05,1121.56 854.55,1122.89 855,1125.5C 860.403,1138.54 865.903,1151.54 871.5,1164.5C 868.377,1166.54 865.044,1168.21 861.5,1169.5C 855.262,1154.95 848.929,1140.45 842.5,1126C 845.099,1124.2 847.766,1122.7 850.5,1121.5 Z"/></g>
<g><path style="opacity:1" fill="#1a7f4e" d="M 388.5,1122.5 C 392.598,1123.38 396.264,1125.05 399.5,1127.5C 395.667,1136.5 391.833,1145.5 388,1154.5C 386.011,1160.29 387.845,1164.12 393.5,1166C 396.257,1166.78 398.757,1166.28 401,1164.5C 405.739,1154.36 409.906,1144.03 413.5,1133.5C 417.662,1133.92 421.329,1135.42 424.5,1138C 420.056,1149.33 415.223,1160.5 410,1171.5C 403.73,1177.79 396.563,1178.96 388.5,1175C 380.58,1172.25 376.246,1166.75 375.5,1158.5C 379.272,1146.29 383.605,1134.29 388.5,1122.5 Z"/></g>
<g><path style="opacity:1" fill="#197e4e" d="M 839.5,1127.5 C 840.5,1127.5 841.5,1127.5 842.5,1127.5C 843.342,1130.5 843.842,1133.5 844,1136.5C 840.05,1137.87 836.217,1139.54 832.5,1141.5C 837.238,1153.38 841.571,1165.38 845.5,1177.5C 841.765,1178.3 838.099,1179.3 834.5,1180.5C 830.5,1168.83 826.5,1157.17 822.5,1145.5C 817.764,1146.63 813.097,1147.97 808.5,1149.5C 807.929,1146.52 806.929,1143.69 805.5,1141C 816.939,1136.58 828.272,1132.08 839.5,1127.5 Z"/></g>
<g><path style="opacity:1" fill="#197e4d" d="M 429.5,1139.5 C 435.029,1140.61 440.029,1142.78 444.5,1146C 443.265,1154.46 442.765,1162.96 443,1171.5C 448.333,1164.17 453.667,1156.83 459,1149.5C 463.786,1151.6 468.619,1153.6 473.5,1155.5C 468.055,1169.39 462.888,1183.39 458,1197.5C 457.481,1198.52 456.647,1199.18 455.5,1199.5C 452.031,1199.2 449.364,1197.7 447.5,1195C 450.57,1186.79 453.403,1178.62 456,1170.5C 450.957,1178.09 445.79,1185.59 440.5,1193C 437.105,1193.23 433.939,1192.4 431,1190.5C 431.114,1181.82 431.447,1173.15 432,1164.5C 429.333,1171.83 426.667,1179.17 424,1186.5C 423.439,1187.02 422.772,1187.36 422,1187.5C 418.759,1186.82 415.926,1185.49 413.5,1183.5C 418.85,1168.81 424.183,1154.14 429.5,1139.5 Z"/></g>
<g><path style="opacity:1" fill="#1a7f4e" d="M 790.5,1145.5 C 794.273,1144.82 797.106,1146.16 799,1149.5C 808.5,1161.17 818,1172.83 827.5,1184.5C 823.839,1185.83 820.172,1187.16 816.5,1188.5C 814.292,1185.95 811.959,1183.45 809.5,1181C 808.667,1180.83 807.833,1180.67 807,1180.5C 802.179,1181.94 797.346,1183.27 792.5,1184.5C 792.5,1188.5 792.5,1192.5 792.5,1196.5C 788.793,1196.79 785.293,1197.79 782,1199.5C 781.646,1182.47 782.313,1165.47 784,1148.5C 786.294,1147.58 788.461,1146.58 790.5,1145.5 Z"/></g>
<g><path style="opacity:1" fill="#1b7f4e" d="M 763.5,1153.5 C 765.124,1153.36 766.29,1154.03 767,1155.5C 770.756,1169.36 774.589,1183.19 778.5,1197C 778.415,1198.11 778.081,1199.11 777.5,1200C 774.828,1200.83 772.161,1201.67 769.5,1202.5C 768.914,1202.29 768.414,1201.96 768,1201.5C 764.135,1186.74 759.969,1172.07 755.5,1157.5C 758.02,1155.87 760.687,1154.54 763.5,1153.5 Z"/></g>
<g><path style="opacity:1" fill="#1a7f4e" d="M 475.5,1155.5 C 479.306,1155.41 482.972,1156.08 486.5,1157.5C 489.965,1167.06 493.132,1176.73 496,1186.5C 496.915,1185.67 497.581,1184.67 498,1183.5C 499.509,1176.46 501.176,1169.46 503,1162.5C 506.815,1161.83 510.315,1162.83 513.5,1165.5C 509.358,1180.4 505.692,1195.4 502.5,1210.5C 498.497,1210.58 494.831,1209.58 491.5,1207.5C 488.436,1197.81 485.269,1188.14 482,1178.5C 479.061,1186.59 476.894,1194.92 475.5,1203.5C 471.544,1203.38 467.878,1202.38 464.5,1200.5C 468.64,1185.61 472.307,1170.61 475.5,1155.5 Z"/></g>
<g><path style="opacity:1" fill="#ecf3f2" d="M 793.5,1161.5 C 796.806,1163.81 799.473,1166.81 801.5,1170.5C 799.318,1172.29 796.818,1173.63 794,1174.5C 793.501,1170.18 793.334,1165.85 793.5,1161.5 Z"/></g>
<g><path style="opacity:1" fill="#1c7f4f" d="M 518.5,1165.5 C 521.874,1165.67 525.207,1166.17 528.5,1167C 529.022,1167.56 529.355,1168.23 529.5,1169C 525.665,1184.01 522.665,1199.17 520.5,1214.5C 517.478,1214.2 514.478,1213.7 511.5,1213C 510.376,1212.16 509.709,1210.99 509.5,1209.5C 511.992,1194.7 514.992,1180.04 518.5,1165.5 Z"/></g>
<g><path style="opacity:1" fill="#197f4e" d="M 732.5,1161.5 C 741.007,1160.08 748.173,1162.41 754,1168.5C 754.638,1169.61 755.138,1170.78 755.5,1172C 752.739,1174.47 749.572,1176.3 746,1177.5C 741.737,1170.84 736.403,1169.84 730,1174.5C 726.609,1182.35 727.276,1190.02 732,1197.5C 741.681,1203.52 747.181,1200.85 748.5,1189.5C 751.518,1189.34 754.518,1189.5 757.5,1190C 760.046,1198.59 757.046,1204.92 748.5,1209C 731.94,1213.97 721.44,1208.14 717,1191.5C 716.581,1211.59 706.414,1220.76 686.5,1219C 677.486,1215.98 671.986,1209.82 670,1200.5C 667.24,1182.33 674.907,1172 693,1169.5C 705.933,1170.13 713.6,1176.8 716,1189.5C 714.604,1175.94 720.104,1166.61 732.5,1161.5 Z"/></g>
<g><path style="opacity:1" fill="#197e4e" d="M 559.5,1171.5 C 563.466,1172.16 567.466,1172.5 571.5,1172.5C 576.37,1189.11 581.036,1205.78 585.5,1222.5C 581.5,1222.17 577.5,1221.83 573.5,1221.5C 572.801,1217.9 571.801,1214.4 570.5,1211C 564.577,1209.7 558.577,1209.2 552.5,1209.5C 552.317,1214.94 549.65,1217.94 544.5,1218.5C 541.869,1218.68 539.535,1218.01 537.5,1216.5C 545.117,1201.6 552.45,1186.6 559.5,1171.5 Z"/></g>
<g><path style="opacity:1" fill="#1b7f4e" d="M 639.5,1174.5 C 644.511,1174.33 649.511,1174.5 654.5,1175C 661.256,1177.57 664.59,1182.41 664.5,1189.5C 660.821,1189.72 657.154,1190.06 653.5,1190.5C 653.607,1188.1 652.607,1186.26 650.5,1185C 647.5,1184.33 644.5,1184.33 641.5,1185C 638.674,1187.52 639.007,1189.52 642.5,1191C 648.203,1192.18 653.87,1193.51 659.5,1195C 669.396,1202.52 670.062,1210.85 661.5,1220C 654.564,1223.4 647.231,1224.4 639.5,1223C 632.002,1220.01 628.335,1214.51 628.5,1206.5C 631.866,1206.21 635.2,1206.05 638.5,1206C 640.608,1213.05 645.275,1215.39 652.5,1213C 655.548,1211.27 656.214,1208.77 654.5,1205.5C 648.46,1204.19 642.46,1202.69 636.5,1201C 627.267,1194.37 626.267,1186.71 633.5,1178C 635.727,1177.06 637.727,1175.89 639.5,1174.5 Z"/></g>
<g><path style="opacity:1" fill="#1a7f4e" d="M 600.5,1174.5 C 610.903,1172.68 619.07,1176.02 625,1184.5C 625.497,1186.81 625.663,1189.14 625.5,1191.5C 621.833,1191.5 618.167,1191.5 614.5,1191.5C 614.556,1188.44 613.222,1186.27 610.5,1185C 607.833,1184.33 605.167,1184.33 602.5,1185C 600.342,1186.31 600.009,1187.98 601.5,1190C 608.326,1192.28 614.993,1194.94 621.5,1198C 628.375,1205.91 628.041,1213.58 620.5,1221C 610.097,1226.3 600.264,1225.46 591,1218.5C 588.43,1214.56 586.93,1210.23 586.5,1205.5C 590.5,1205.5 594.5,1205.5 598.5,1205.5C 599.082,1212.97 603.082,1215.8 610.5,1214C 614.795,1212.15 615.462,1209.49 612.5,1206C 606.264,1204.25 600.264,1201.92 594.5,1199C 586.3,1188.25 588.3,1180.08 600.5,1174.5 Z"/></g>
<g><path style="opacity:1" fill="#f4f8f8" d="M 689.5,1179.5 C 696.489,1179.08 701.322,1182.08 704,1188.5C 705.11,1194.43 704.444,1200.09 702,1205.5C 692.074,1212.51 685.407,1210.18 682,1198.5C 679.359,1189.87 681.859,1183.54 689.5,1179.5 Z"/></g>
<g><path style="opacity:1" fill="#e3efeb" d="M 563.5,1187.5 C 565.589,1191.5 566.922,1195.83 567.5,1200.5C 564.327,1200.6 561.327,1199.93 558.5,1198.5C 559.979,1194.72 561.646,1191.05 563.5,1187.5 Z"/></g>
</svg>
